<?xml version="1.0" encoding="utf-8"?>
<!-- Generator: Adobe Illustrator 27.5.0, SVG Export Plug-In . SVG Version: 6.00 Build 0)  -->
<svg version="1.1" id="Layer_1" xmlns="http://www.w3.org/2000/svg" xmlns:xlink="http://www.w3.org/1999/xlink" x="0px" y="0px"
	 viewBox="0 0 200 200" style="enable-background:new 0 0 200 200;" xml:space="preserve">
<style type="text/css">
	.st0{fill:none;}
	.st1{fill:#BC085A;}
	.st2{fill:#B7065F;}
	.st3{fill:#E8C8A5;}
	.st4{fill:#F79420;}
	.st5{fill:#F9D6B0;}
	.st6{fill:#4F4F4F;}
	.st7{fill:#B2B2B2;}
	.st8{fill:#DBDADA;}
	.st9{fill:#3F4040;}
	.st10{fill:#008C97;}
	.st11{opacity:0.1;}
	.st12{opacity:0.12;}
	.st13{fill:#4D4D4D;}
	.st14{fill:#BC005E;}
	.st15{fill:#990046;}
	.st16{fill:#D30763;}
	.st17{fill:#BA025E;}
	.st18{fill:#E80360;}
	.st19{fill:#333333;}
	.st20{fill:#FFFFFF;}
</style>
<g>
	<rect y="0" class="st0" width="200" height="200"/>
	<circle class="st1" cx="100" cy="100" r="69.81"/>
	<circle class="st2" cx="100" cy="100" r="58.91"/>
	<g>
		<g>
			<path class="st3" d="M150.79,76.79c0,0,1.09-0.15,1.32,0.98c0.23,1.13,0.11,3.29-0.23,3.52c-0.34,0.23-1.8,1.4-1.8,1.4
				S150.16,78.2,150.79,76.79z"/>
		</g>
		<g>
			<path class="st4" d="M149.63,87.42c0,0-0.37,3.95,1.9,4.86c2.27,0.91,14.29,2.95,16.1,7.6c1.81,4.65,6.01,15.65,6.13,20.19
				c0.11,4.54,2.95,16.78,0.91,19.17c-2.04,2.38-2.04,4.76-2.27,5.33c-0.23,0.57-4.76,11-8.85,11.45c-4.08,0.45-9.07,2.16-11.34,5.1
				c-2.27,2.95-5.56,3.74-9.64,4.08c-4.08,0.34-8.85,1.7-12.47,0.57c-3.63-1.13-7.14-5.78-10.55-6.92
				c-3.4-1.13-4.08-10.21-4.08-10.21s-8.05-4.08-8.73-11c-0.68-6.92-0.11-17.58,1.02-23.25c1.13-5.67,2.04-13.72,5.78-16.9
				c3.74-3.18,10.77-3.29,14.52-4.65c3.74-1.36,5.44-0.68,5.8-4.94C133.85,87.91,145.69,84.72,149.63,87.42z"/>
		</g>
		<g>
			<path class="st5" d="M150.54,91.53c0,0-0.03,6.2-5.24,8.58c-5.22,2.38-7.49,0.91-8.85-1.25s-3.1-6.57-3.67-7.81v0
				c0.58-0.57,0.93-1.47,1.07-3.12c0-0.01,0-0.02,0-0.02c0,0,0.03-0.01,0.09-0.02c1.11-0.29,11.9-3.01,15.66-0.48
				c0.01,0.01,0.02,0.02,0.03,0.02c0,0-0.01,0.11-0.02,0.29C149.59,88.45,149.62,90.36,150.54,91.53z"/>
		</g>
		<g>
			<path class="st5" d="M133.16,76.63l0.23,10.21c0,0,2.61,6.24,3.97,6.69c1.36,0.45,6.01,1.25,7.6,0.23
				c1.59-1.02,5.1-6.35,5.22-7.82c0.11-1.47,0.45-8.17,0.45-9.3c0-1.13,0.68-4.08-0.11-5.1c-0.79-1.02,0.79-1.13-3.18-2.04
				c-3.97-0.91-9.98-0.79-11.91,0.91C133.5,72.1,133.11,74.7,133.16,76.63z"/>
		</g>
		<g>
			<path class="st6" d="M150.56,78.55c0,0,1.08-3.05,1.65-3.73c0.57-0.68,1.47-3.63,0.79-5.33c-0.68-1.7-2.61-4.54-3.86-5.1
				c-1.25-0.57-4.99-1.93-7.37-1.59c-2.38,0.34-6.01,0.91-7.48,2.27c-1.47,1.36-3.74,5.22-3.74,6.35c0,1.13-0.45,3.4-0.23,5.78
				c0.23,2.38,2.93,3.51,2.94,4.08c0.01,0.58,1.03-5.78,1.03-5.78s0.91-1.81,4.99-1.81c4.08,0,5.22,0.11,7.37,0.34
				c2.16,0.23,2.27,0.23,2.72-0.68C149.83,72.44,150.56,78.55,150.56,78.55z"/>
		</g>
		<g>
			<path class="st3" d="M132.58,76.83c0,0-1.07-0.26-1.41,0.84c-0.34,1.11-0.45,3.26-0.13,3.52c0.31,0.26,2.26,1.82,2.26,1.82
				S133.3,78.4,132.58,76.83z"/>
		</g>
		<g>
			<polygon class="st7" points="114.61,112.7 169.9,113.55 163.77,148.25 116.31,148.08 			"/>
		</g>
		<g>
			<path class="st8" d="M146.25,129.54c0,2.72-2.17,4.93-4.85,4.93c-2.68,0-4.85-2.21-4.85-4.93c0-2.72,2.17-4.93,4.85-4.93
				C144.08,124.6,146.25,126.81,146.25,129.54z"/>
		</g>
		<g>
			<path class="st9" d="M119.28,173.33c0,0-7.98-0.87-13.94,2.71c-5.95,3.57-8.34,6.46-7.99,7.66c0.34,1.19-3.57,5.78,9.7,7.82
				c4.76-2.89,11.23-5.1,13.61-7.31c2.38-2.21,3.51-3.9,3.51-3.9L119.28,173.33z"/>
		</g>
		<g>
			<path class="st10" d="M172.54,143.92c0,0,8.07-1.96,10.63-1.11c2.55,0.85,5.95,2.89,6.46,5.95c0.51,3.06,0.68,8.85-2.72,12.25
				c-3.4,3.4-11.57,6.97-15.99,7.66c-4.42,0.68-10.04,2.04-12.25,2.55c-2.21,0.51-25.09,7.57-25.09,7.57s-8.42,3.83-9.45,3.83
				c-1.02,0-6.97-9.36-6.97-9.36s0.17-1.19,4.93-3.57c4.76-2.38,15.31-7.31,15.31-7.31s19.56-8.34,22.62-10.55
				C163.09,149.61,172.54,143.92,172.54,143.92z"/>
		</g>
		<g>
			<path class="st10" d="M118.35,150.57c0,0-10.38-7.54-14.29-7.54c-3.91,0-8.85,0.17-11.06,4.25c-2.21,4.08-1.19,14.63,3.4,16.33
				c4.59,1.7,20.07,8.68,23.31,10.04c3.23,1.36,8.17,4.76,12.42,5.78c4.25,1.02,9.7,3.4,12.25,3.06c2.55-0.34,7.14-11.4,6.46-12.59
				c-0.68-1.19-6.63-3.06-10.55-5.61c-3.91-2.55-11.06-6.46-13.1-8C125.15,154.76,118.35,150.57,118.35,150.57z"/>
		</g>
		<g>
			<path class="st9" d="M150.8,171.09c0,0,3.95,0.69,6.33,1.2c2.38,0.51,4.25,1.36,6.97,3.4c2.72,2.04,7.83,4.93,7.32,7.65
				c-0.51,2.72-1.87,7.65-5.27,7.65c-3.4,0-10.55-0.34-12.76-2.89c-2.21-2.55-8.01-6.18-8.01-6.18S150.09,173.29,150.8,171.09z"/>
		</g>
		<path class="st11" d="M149.63,87.42c0,0-0.01,0.11-0.02,0.29c-0.24,0.55-0.57,1.19-0.98,1.89c-0.61,1.01-1.33,2.19-2.3,3.33
			c-0.25,0.28-0.5,0.56-0.8,0.83c-0.3,0.27-0.69,0.49-1.09,0.6c-0.79,0.22-1.6,0.25-2.4,0.24c-0.8-0.03-1.59-0.12-2.36-0.24
			c-0.77-0.13-1.52-0.27-2.25-0.5c-0.45-0.15-0.7-0.48-0.93-0.75c-0.23-0.29-0.42-0.59-0.6-0.88c-0.35-0.59-0.65-1.16-0.91-1.69
			c-0.52-1.06-0.89-1.98-1.15-2.61c0,0,0,0,0-0.01c0-0.01,0-0.02,0-0.02c0,0,0.03-0.01,0.09-0.02c0,0,0,0.01,0.01,0.01
			c0.3,0.62,0.76,1.48,1.32,2.51c0.28,0.51,0.6,1.06,0.97,1.61c0.19,0.27,0.38,0.55,0.61,0.81c0.22,0.25,0.46,0.51,0.73,0.59
			c0.68,0.2,1.43,0.34,2.18,0.45c0.75,0.11,1.53,0.18,2.3,0.2c0.77,0.02,1.55,0.01,2.24-0.18c0.35-0.09,0.65-0.25,0.91-0.48
			c0.27-0.23,0.53-0.5,0.76-0.77c0.95-1.09,1.76-2.2,2.4-3.18c0.51-0.79,0.93-1.48,1.23-2.05
			C149.61,87.41,149.62,87.42,149.63,87.42z"/>
	</g>
	<g>
		<g>
			<path class="st12" d="M105.61,63.33L87,51.31l-13.89-7.7l-0.76-0.43l-7.88-1.01l-2.51,1.4c-1.88-1.06-3.96-2.01-6.28-2.71
				c-1.53-0.46-3.1-0.76-4.65-0.92c-0.73-0.37-1.48-0.72-2.29-1.04c-6.08-2.42-13.29-1.1-17.69,1.04
				c-9.17,4.47-3.44,14.3,3.68,19.57l-7.32,4.28l25.86,35.37l10.8,6.24c0.15-0.11,0.31-0.22,0.49-0.31
				c1.84-0.96,3.68-1.82,5.52-2.62c5.29-3.33,10.99-6.19,16.27-8.94c4.98-2.59,9.98-5.06,15.01-7.24c1.13-0.73,2.27-1.47,3.39-2.22
				C107.73,82.08,105.61,63.33,105.61,63.33z M37.12,58.1c-5.27-4.13-7.99-9.57-6.15-13.95c1.25-2.99,7.94-5.81,14.54-4.2
				c-3.05,0.37-5.74,1.31-7.57,2.73c-4.6,3.57-2.2,8.97,2.06,13.73L37.12,58.1z M42.68,54.85c-2.18-2.81-3.45-5.74-3.08-8.42
				c0.38-2.73,4.69-5.07,10.14-4.78c2.79,1.6,4.81,3.8,5.88,5.63L42.68,54.85z M58.31,45.71c-0.73-0.95-1.61-1.89-2.67-2.78
				c1.46,0.54,2.82,1.21,4.08,1.96L58.31,45.71z"/>
			<g>
				<path class="st13" d="M75.31,13.92c-9.77,4.62-11.33,20.56-9.03,29.72c0.46,1.84,3.29,1.06,2.83-0.78
					c-1.85-7.36-0.68-16.47,3.58-22.79c2.82-4.18,9.78-6.91,13.76-2.85c3.11,3.17,3.49,9.59,2.85,13.73
					c-0.29,1.85,2.54,2.65,2.83,0.78c0.81-5.22,0.11-11.07-2.8-15.56C86.19,11.34,79.94,11.73,75.31,13.92z"/>
			</g>
			<g>
				<polygon class="st14" points="96.38,38.16 109.21,30.74 98.73,24.53 				"/>
			</g>
			<polygon class="st15" points="58.07,48 70.93,55.72 99.07,40.57 98.73,24.53 			"/>
			<polygon class="st16" points="58.07,48 53.27,99.16 74.03,111.15 68.56,54.21 			"/>
			<polygon class="st17" points="64.46,95.83 65.9,96.21 66.26,52.85 64.85,52.01 			"/>
			<g>
				<polygon class="st18" points="68.56,54.21 74.03,111.15 114.69,87.68 109.21,30.74 				"/>
			</g>
			<polygon class="st17" points="53.27,99.16 53.93,99.54 66.03,95.96 65.45,95.16 			"/>
			<polygon class="st17" points="64.68,95.42 72.69,110.37 74.03,111.15 65.54,95.18 			"/>
			<g>
				<path class="st13" d="M78.85,19.41c-8.64,6.48-7.51,22.67-5.13,31.86c0.47,1.83,3.31,1.05,2.83-0.78
					c-2.03-7.85-2.41-17.85,1.27-25.25c2.34-4.69,8.62-7.37,12.84-3.37c3.83,3.63,4.89,10.65,5.35,15.65c0.17,1.87,3.11,1.88,2.94,0
					c-0.53-5.66-1.69-12.57-5.57-17C89.55,16.15,83.43,15.98,78.85,19.41z"/>
			</g>
		</g>
		<g>
			<path class="st19" d="M79.79,73.31c-1.08,0.63-1.9,1.33-2.45,2.12c-0.55,0.79-0.82,1.62-0.82,2.51c0,0.49,0.07,0.87,0.22,1.12
				c0.14,0.26,0.38,0.4,0.7,0.45c0.33,0.05,0.77,0.01,1.32-0.12c0.47-0.12,0.84-0.2,1.11-0.24c0.27-0.05,0.47-0.03,0.59,0.04
				c0.12,0.07,0.18,0.23,0.18,0.47c0,0.36-0.12,0.66-0.37,0.91c-0.25,0.25-0.62,0.52-1.12,0.81c-0.4,0.23-0.83,0.42-1.27,0.56
				c-0.45,0.14-0.85,0.23-1.22,0.26l0.01,1.97c0.33-0.02,0.73-0.11,1.2-0.29s0.97-0.42,1.5-0.73c1.14-0.66,1.98-1.4,2.53-2.23
				c0.55-0.82,0.82-1.64,0.82-2.46c0-0.46-0.07-0.84-0.2-1.13s-0.38-0.48-0.73-0.56c-0.35-0.08-0.86-0.03-1.52,0.15
				c-0.43,0.11-0.76,0.19-1.01,0.23c-0.25,0.05-0.42,0.04-0.53-0.02c-0.1-0.06-0.15-0.19-0.15-0.4c0-0.34,0.14-0.65,0.42-0.9
				c0.28-0.25,0.65-0.52,1.1-0.78c0.34-0.2,0.7-0.36,1.06-0.5c0.36-0.13,0.72-0.22,1.08-0.26l-0.01-1.99
				c-0.28,0.06-0.64,0.17-1.08,0.34C80.71,72.81,80.26,73.04,79.79,73.31"/>
			<polyline class="st19" points="90.93,67.02 88.91,68.19 88.92,71.86 85.76,73.68 85.75,70.01 83.73,71.18 83.76,80.46 
				85.77,79.3 85.76,75.62 88.92,73.79 88.93,77.47 90.96,76.3 90.93,67.02 			"/>
			<path class="st19" d="M96,71.55c-0.68,0.4-1.18,0.46-1.5,0.19c-0.31-0.27-0.47-0.88-0.47-1.83c0-1.04,0.15-1.86,0.46-2.47
				c0.32-0.61,0.81-1.11,1.5-1.5c0.68-0.39,1.17-0.47,1.49-0.22c0.32,0.25,0.48,0.89,0.48,1.93c0,0.95-0.15,1.74-0.47,2.37
				C97.18,70.65,96.69,71.16,96,71.55 M95.98,63.96c-1.31,0.76-2.31,1.71-3,2.86c-0.68,1.14-1.02,2.57-1.02,4.3
				c0,1.62,0.35,2.62,1.04,3c0.69,0.37,1.69,0.18,3-0.58c1.31-0.76,2.31-1.72,3-2.89c0.69-1.17,1.03-2.56,1.02-4.19
				c0-1.72-0.35-2.76-1.04-3.11C98.3,62.99,97.3,63.2,95.98,63.96"/>
			<path class="st19" d="M103.07,64.79l-0.01-2.98l1.52-0.88c0.42-0.24,0.72-0.29,0.92-0.13c0.2,0.15,0.3,0.46,0.3,0.95
				c0,0.44-0.1,0.86-0.31,1.25c-0.22,0.39-0.53,0.71-0.96,0.96L103.07,64.79 M105.02,58.88l-3.98,2.3l0.03,9.29l2.02-1.17
				l-0.01-2.73l1.91-1.1c0.59-0.34,1.11-0.77,1.54-1.3c0.43-0.52,0.76-1.1,0.99-1.72c0.23-0.63,0.35-1.26,0.35-1.89
				c0-0.63-0.1-1.13-0.31-1.51c-0.21-0.38-0.52-0.6-0.94-0.65C106.19,58.35,105.66,58.51,105.02,58.88"/>
		</g>
		<g>
			<path class="st20" d="M80.54,72.28c-1.08,0.63-1.9,1.33-2.45,2.12c-0.55,0.79-0.82,1.62-0.82,2.51c0,0.49,0.07,0.87,0.22,1.12
				c0.14,0.26,0.38,0.4,0.7,0.45c0.33,0.05,0.77,0.01,1.32-0.12c0.47-0.12,0.84-0.2,1.11-0.24c0.27-0.05,0.47-0.03,0.59,0.04
				c0.12,0.07,0.18,0.23,0.18,0.47c0,0.36-0.12,0.66-0.37,0.91c-0.25,0.25-0.62,0.52-1.12,0.81c-0.4,0.23-0.83,0.42-1.27,0.56
				c-0.45,0.14-0.85,0.23-1.22,0.26l0.01,1.97c0.33-0.02,0.73-0.11,1.2-0.29c0.46-0.18,0.97-0.42,1.5-0.73
				c1.14-0.66,1.98-1.4,2.53-2.23c0.55-0.82,0.82-1.64,0.82-2.46c0-0.46-0.07-0.84-0.2-1.13s-0.38-0.48-0.73-0.56
				c-0.35-0.08-0.86-0.03-1.52,0.15c-0.43,0.11-0.76,0.19-1.01,0.23c-0.25,0.05-0.42,0.04-0.53-0.02c-0.1-0.06-0.15-0.19-0.15-0.4
				c0-0.34,0.14-0.65,0.42-0.9c0.28-0.25,0.65-0.52,1.1-0.78c0.34-0.2,0.7-0.36,1.06-0.5c0.36-0.13,0.72-0.22,1.08-0.26l-0.01-1.99
				c-0.28,0.06-0.64,0.17-1.08,0.34C81.47,71.79,81.01,72.01,80.54,72.28"/>
			<polyline class="st20" points="91.69,66 89.66,67.17 89.67,70.84 86.51,72.66 86.5,68.99 84.48,70.16 84.51,79.44 86.53,78.28 
				86.52,74.6 89.68,72.77 89.69,76.45 91.71,75.28 91.69,66 			"/>
			<path class="st20" d="M96.76,70.53c-0.68,0.4-1.18,0.46-1.5,0.19c-0.31-0.27-0.47-0.88-0.47-1.83c0-1.04,0.15-1.86,0.46-2.47
				c0.32-0.61,0.81-1.11,1.5-1.5c0.68-0.39,1.17-0.47,1.49-0.22c0.32,0.25,0.48,0.89,0.48,1.93c0,0.95-0.15,1.74-0.47,2.37
				C97.93,69.63,97.44,70.14,96.76,70.53 M96.74,62.94c-1.31,0.76-2.31,1.71-3,2.86c-0.68,1.14-1.02,2.57-1.02,4.3
				c0,1.62,0.35,2.62,1.04,3c0.69,0.37,1.69,0.18,3-0.58c1.31-0.76,2.31-1.72,3-2.89c0.69-1.17,1.03-2.56,1.02-4.19
				c0-1.72-0.35-2.76-1.04-3.11C99.05,61.97,98.05,62.18,96.74,62.94"/>
			<path class="st20" d="M103.83,63.76l-0.01-2.98l1.52-0.88c0.42-0.24,0.72-0.29,0.92-0.13c0.2,0.15,0.3,0.46,0.3,0.95
				c0,0.44-0.1,0.86-0.31,1.25c-0.22,0.39-0.53,0.71-0.96,0.96L103.83,63.76 M105.77,57.86l-3.98,2.3l0.03,9.29l2.02-1.17
				l-0.01-2.73l1.91-1.1c0.59-0.34,1.11-0.77,1.54-1.3s0.76-1.1,0.99-1.72c0.23-0.63,0.35-1.26,0.35-1.89c0-0.63-0.1-1.13-0.31-1.51
				c-0.21-0.38-0.52-0.6-0.94-0.65C106.95,57.33,106.42,57.49,105.77,57.86"/>
		</g>
	</g>
</g>
</svg>
