<?xml version="1.0" encoding="utf-8"?>
<!-- Generator: Adobe Illustrator 27.5.0, SVG Export Plug-In . SVG Version: 6.00 Build 0)  -->
<svg version="1.1" id="Layer_1" xmlns="http://www.w3.org/2000/svg" xmlns:xlink="http://www.w3.org/1999/xlink" x="0px" y="0px"
	 viewBox="0 0 200 200" style="enable-background:new 0 0 200 200;" xml:space="preserve">
<style type="text/css">
	.st0{opacity:0.5;clip-path:url(#SVGID_00000107589333007881038140000012354451972456273308_);}
	.st1{fill-rule:evenodd;clip-rule:evenodd;fill:#A9A9A9;}
	.st2{fill:#A9A9A9;}
	.st3{fill:#FFFFFF;}
	.st4{fill:#A00F00;}
	.st5{fill:#B22A00;}
	.st6{fill:#FF5B00;}
	.st7{fill:#A5A5A5;}
	.st8{fill:#D9E5E8;}
	.st9{opacity:0.67;fill:#FFFFFF;}
	.st10{fill:#FAC97A;}
	.st11{fill:#FF9B0B;}
	.st12{fill:#6094A0;}
	.st13{opacity:0.35;fill:#6094A0;}
	.st14{opacity:0.12;}
	.st15{fill:#4D4D4D;}
	.st16{fill:#BC005E;}
	.st17{fill:#990046;}
	.st18{fill:#D30763;}
	.st19{fill:#BA025E;}
	.st20{fill:#E80360;}
	.st21{fill:#333333;}
</style>
<g>
	<g>
		<rect y="0" class="st3" width="200" height="200"/>
		<path d="M56.33,16.51c0-0.71,0.58-1.28,1.28-1.28l0,0h2.57h1.28v1.28v2.57v1.28h-1.28h-2.57h-1.28v-1.28V16.51"/>
		<path d="M61.47,16.51v-1.28h1.28h2.57c0.71,0,1.28,0.58,1.28,1.28l0,0v2.57v1.28h-1.28h-2.57h-1.28v-1.28V16.51"/>
		<path d="M76.88,16.51c0-0.71,0.58-1.28,1.28-1.28l0,0h2.57c0.71,0,1.28,0.58,1.28,1.28l0,0v2.57c0,0.71-0.58,1.28-1.28,1.28l0,0
			h-2.57c-0.71,0-1.28-0.58-1.28-1.28l0,0V16.51"/>
		<path d="M87.16,16.51c0-0.71,0.58-1.28,1.28-1.28l0,0h2.57h1.28v1.28v2.57v1.28h-1.28h-2.57h-1.28v-1.28V16.51"/>
		<path d="M92.29,16.51v-1.28h1.28h2.57c0.71,0,1.28,0.58,1.28,1.28l0,0v2.57v1.28h-1.28h-2.57h-1.28v-1.28V16.51"/>
		<path d="M128.26,16.51c0-0.71,0.58-1.28,1.28-1.28l0,0h2.57h1.28v1.28v2.57v1.28h-1.28h-2.57h-1.28v-1.28V16.51"/>
		<path d="M133.4,16.51v-1.28h1.28h2.57h1.28v1.28v2.57v1.28h-1.28h-2.57h-1.28v-1.28V16.51"/>
		<path d="M138.53,16.51v-1.28h1.28h2.57c0.71,0,1.28,0.58,1.28,1.28l0,0v2.57c0,0.71-0.58,1.28-1.28,1.28l0,0h-2.57h-1.28v-1.28
			V16.51"/>
		<path d="M56.33,21.65v-1.28h1.28h2.57h1.28v1.28v2.57v1.28h-1.28h-2.57c-0.71,0-1.28-0.58-1.28-1.28V21.65"/>
		<path d="M66.6,25.5h-1.28c0.71,0,1.28,0.58,1.28,1.28l0,0V25.5"/>
		<path d="M61.47,21.65v-1.28h1.28h2.57h1.28v1.28v2.57v1.28h-1.28h-2.57h-1.28v-1.28V21.65"/>
		<path d="M66.6,20.36v-1.28c0,0.71,0.58,1.28,1.28,1.28l0,0H66.6"/>
		<path d="M66.6,21.65v-1.28h1.28h2.57h1.28v1.28v2.57v1.28h-1.28h-2.57H66.6v-1.28V21.65"/>
		<path d="M71.74,25.5h1.28c-0.71,0-1.28,0.58-1.28,1.28l0,0V25.5"/>
		<path d="M71.74,21.65v-1.28h1.28h2.57c0.71,0,1.28,0.58,1.28,1.28l0,0v2.57c0,0.71-0.58,1.28-1.28,1.28h-2.57h-1.28v-1.28V21.65"
			/>
		<path d="M87.16,25.5h-1.28c0.71,0,1.28-0.58,1.28-1.28V25.5"/>
		<path d="M87.16,21.65v-1.28h1.28h2.57h1.28v1.28v2.57v1.28h-1.28h-2.57h-1.28v-1.28V21.65"/>
		<path d="M92.29,25.5h1.28c-0.71,0-1.28,0.58-1.28,1.28l0,0V25.5"/>
		<path d="M92.29,21.65v-1.28h1.28h2.57h1.28v1.28v2.57c0,0.71-0.58,1.28-1.28,1.28h-2.57h-1.28v-1.28V21.65"/>
		<path d="M112.84,21.65c0-0.71,0.58-1.28,1.28-1.28l0,0h2.57c0.71,0,1.28,0.58,1.28,1.28l0,0v2.57c0,0.71-0.58,1.28-1.28,1.28
			h-2.57c-0.71,0-1.28-0.58-1.28-1.28V21.65"/>
		<path d="M128.26,21.65v-1.28h1.28h2.57h1.28v1.28v2.57v1.28h-1.28h-2.57c-0.71,0-1.28-0.58-1.28-1.28V21.65"/>
		<path d="M138.53,20.36h1.28c-0.71,0-1.28,0.58-1.28,1.28l0,0V20.36"/>
		<path d="M133.4,21.65v-1.28h1.28h2.57h1.28v1.28v2.57c0,0.71-0.58,1.28-1.28,1.28h-2.57h-1.28v-1.28V21.65"/>
		<path d="M66.6,25.5h-1.28c0.71,0,1.28,0.58,1.28,1.28l0,0V25.5"/>
		<path d="M71.74,25.5h1.28c-0.71,0-1.28,0.58-1.28,1.28l0,0V25.5"/>
		<path d="M71.74,30.64v-1.28c0,0.71,0.58,1.28,1.28,1.28H71.74"/>
		<path d="M66.6,26.78V25.5h1.28h2.57h1.28v1.28v2.57v1.28h-1.28h-2.57H66.6v-1.28V26.78"/>
		<path d="M76.88,30.64h-1.28c0.71,0,1.28-0.58,1.28-1.28V30.64"/>
		<path d="M76.88,26.78c0-0.71,0.58-1.28,1.28-1.28l0,0h2.57h1.28v1.28v2.57v1.28h-1.28h-2.57h-1.28v-1.28V26.78"/>
		<path d="M87.16,25.5v-1.28c0,0.71-0.58,1.28-1.28,1.28H87.16"/>
		<path d="M87.16,30.64h-1.28c0.71,0,1.28,0.58,1.28,1.28V30.64"/>
		<path d="M82.02,30.64h1.28c-0.71,0-1.28,0.58-1.28,1.28V30.64"/>
		<path d="M82.02,26.78V25.5h1.28h2.57h1.28v1.28v2.57v1.28h-1.28H83.3h-1.28v-1.28V26.78"/>
		<path d="M92.29,25.5h1.28c-0.71,0-1.28,0.58-1.28,1.28l0,0V25.5"/>
		<path d="M92.29,30.64v-1.28c0,0.71,0.58,1.28,1.28,1.28H92.29"/>
		<path d="M87.16,26.78V25.5h1.28h2.57h1.28v1.28v2.57v1.28h-1.28h-2.57h-1.28v-1.28V26.78"/>
		<path d="M97.43,30.64h-1.28c0.71,0,1.28-0.58,1.28-1.28V30.64"/>
		<path d="M97.43,26.78c0-0.71,0.58-1.28,1.28-1.28l0,0h2.57h1.28v1.28v2.57v1.28h-1.28h-2.57h-1.28v-1.28V26.78"/>
		<path d="M102.57,30.64h1.28c-0.71,0-1.28,0.58-1.28,1.28V30.64"/>
		<path d="M102.57,26.78V25.5h1.28h2.57h1.28v1.28v2.57v1.28h-1.28h-2.57h-1.28v-1.28V26.78"/>
		<path d="M107.71,26.78V25.5h1.28h2.57c0.71,0,1.28,0.58,1.28,1.28l0,0v2.57c0,0.71-0.58,1.28-1.28,1.28h-2.57h-1.28v-1.28V26.78"
			/>
		<path d="M117.98,26.78c0-0.71,0.58-1.28,1.28-1.28l0,0h2.57c0.71,0,1.28,0.58,1.28,1.28l0,0v2.57c0,0.71-0.58,1.28-1.28,1.28
			h-2.57c-0.71,0-1.28-0.58-1.28-1.28V26.78"/>
		<path d="M138.53,26.78c0-0.71,0.58-1.28,1.28-1.28l0,0h2.57c0.71,0,1.28,0.58,1.28,1.28l0,0v2.57v1.28h-1.28h-2.57h-1.28v-1.28
			V26.78"/>
		<path d="M61.47,35.78v-1.28c0,0.71,0.58,1.28,1.28,1.28H61.47"/>
		<path d="M56.33,31.92c0-0.71,0.58-1.28,1.28-1.28h2.57c0.71,0,1.28,0.58,1.28,1.28v2.57v1.28h-1.28h-2.57h-1.28v-1.28V31.92"/>
		<path d="M66.6,35.78h-1.28c0.71,0,1.28-0.58,1.28-1.28V35.78"/>
		<path d="M66.6,31.92v-1.28h1.28h2.57h1.28v1.28v2.57v1.28h-1.28h-2.57H66.6v-1.28V31.92"/>
		<path d="M71.74,30.64v-1.28c0,0.71,0.58,1.28,1.28,1.28H71.74"/>
		<path d="M76.88,30.64v-1.28c0,0.71-0.58,1.28-1.28,1.28H76.88"/>
		<path d="M71.74,35.78h1.28c-0.71,0-1.28,0.58-1.28,1.28l0,0V35.78"/>
		<path d="M71.74,31.92v-1.28h1.28h2.57h1.28v1.28v2.57v1.28h-1.28h-2.57h-1.28v-1.28V31.92"/>
		<path d="M82.02,30.64h1.28c-0.71,0-1.28,0.58-1.28,1.28V30.64"/>
		<path d="M76.88,31.92v-1.28h1.28h2.57h1.28v1.28v2.57c0,0.71-0.58,1.28-1.28,1.28h-2.57h-1.28v-1.28V31.92"/>
		<path d="M87.16,30.64h-1.28c0.71,0,1.28,0.58,1.28,1.28V30.64"/>
		<path d="M87.16,31.92v-1.28h1.28h2.57h1.28v1.28v2.57v1.28h-1.28h-2.57c-0.71,0-1.28-0.58-1.28-1.28V31.92"/>
		<path d="M92.29,30.64v-1.28c0,0.71,0.58,1.28,1.28,1.28H92.29"/>
		<path d="M97.43,30.64v-1.28c0,0.71-0.58,1.28-1.28,1.28H97.43"/>
		<path d="M97.43,35.78h-1.28c0.71,0,1.28,0.58,1.28,1.28l0,0V35.78"/>
		<path d="M92.29,31.92v-1.28h1.28h2.57h1.28v1.28v2.57v1.28h-1.28h-2.57h-1.28v-1.28V31.92"/>
		<path d="M102.57,30.64h1.28c-0.71,0-1.28,0.58-1.28,1.28V30.64"/>
		<path d="M102.57,35.78v-1.28c0,0.71,0.58,1.28,1.28,1.28H102.57"/>
		<path d="M97.43,31.92v-1.28h1.28h2.57h1.28v1.28v2.57v1.28h-1.28h-2.57h-1.28v-1.28V31.92"/>
		<path d="M112.84,31.92c0-0.71,0.58-1.28,1.28-1.28h2.57c0.71,0,1.28,0.58,1.28,1.28v2.57c0,0.71-0.58,1.28-1.28,1.28h-2.57
			c-0.71,0-1.28-0.58-1.28-1.28V31.92"/>
		<path d="M138.53,31.92v-1.28h1.28h2.57h1.28v1.28v2.57v1.28h-1.28h-2.57h-1.28v-1.28V31.92"/>
		<path d="M56.33,37.06v-1.28h1.28h2.57h1.28v1.28v2.57v1.28h-1.28h-2.57h-1.28v-1.28V37.06"/>
		<path d="M61.47,35.78v-1.28c0,0.71,0.58,1.28,1.28,1.28H61.47"/>
		<path d="M66.6,35.78v-1.28c0,0.71-0.58,1.28-1.28,1.28H66.6"/>
		<path d="M61.47,37.06v-1.28h1.28h2.57h1.28v1.28v2.57v1.28h-1.28h-2.57h-1.28v-1.28V37.06"/>
		<path d="M71.74,35.78h1.28c-0.71,0-1.28,0.58-1.28,1.28l0,0V35.78"/>
		<path d="M66.6,37.06v-1.28h1.28h2.57h1.28v1.28v2.57v1.28h-1.28h-2.57H66.6v-1.28V37.06"/>
		<path d="M97.43,35.78h-1.28c0.71,0,1.28,0.58,1.28,1.28l0,0V35.78"/>
		<path d="M97.43,37.06v-1.28h1.28h2.57h1.28v1.28v2.57v1.28h-1.28h-2.57h-1.28v-1.28V37.06"/>
		<path d="M102.57,35.78v-1.28c0,0.71,0.58,1.28,1.28,1.28H102.57"/>
		<path d="M102.57,40.91h1.28c-0.71,0-1.28,0.58-1.28,1.28V40.91"/>
		<path d="M102.57,37.06v-1.28h1.28h2.57h1.28v1.28v2.57v1.28h-1.28h-2.57h-1.28v-1.28V37.06"/>
		<path d="M107.71,37.06v-1.28h1.28h2.57c0.71,0,1.28,0.58,1.28,1.28l0,0v2.57c0,0.71-0.58,1.28-1.28,1.28l0,0h-2.57h-1.28v-1.28
			V37.06"/>
		<path d="M117.98,37.06c0-0.71,0.58-1.28,1.28-1.28l0,0h2.57h1.28v1.28v2.57v1.28h-1.28h-2.57h-1.28v-1.28V37.06"/>
		<path d="M128.26,40.91v-1.28c0,0.71,0.58,1.28,1.28,1.28l0,0H128.26"/>
		<path d="M123.12,37.06v-1.28h1.28h2.57c0.71,0,1.28,0.58,1.28,1.28l0,0v2.57v1.28h-1.28h-2.57h-1.28v-1.28V37.06"/>
		<path d="M138.53,37.06v-1.28h1.28h2.57h1.28v1.28v2.57v1.28h-1.28h-2.57h-1.28v-1.28V37.06"/>
		<path d="M56.33,42.2v-1.28h1.28h2.57h1.28v1.28v2.57v1.28h-1.28h-2.57h-1.28v-1.28V42.2"/>
		<path d="M66.6,46.05h-1.28c0.71,0,1.28,0.58,1.28,1.28V46.05"/>
		<path d="M61.47,46.05h1.28c-0.71,0-1.28,0.58-1.28,1.28V46.05"/>
		<path d="M61.47,42.2v-1.28h1.28h2.57h1.28v1.28v2.57v1.28h-1.28h-2.57h-1.28v-1.28V42.2"/>
		<path d="M66.6,42.2v-1.28h1.28h2.57h1.28v1.28v2.57v1.28h-1.28h-2.57H66.6v-1.28V42.2"/>
		<path d="M76.88,42.2c0-0.71,0.58-1.28,1.28-1.28h2.57c0.71,0,1.28,0.58,1.28,1.28v2.57v1.28h-1.28h-2.57h-1.28v-1.28V42.2"/>
		<path d="M102.57,40.91h1.28c-0.71,0-1.28,0.58-1.28,1.28V40.91"/>
		<path d="M97.43,42.2v-1.28h1.28h2.57h1.28v1.28v2.57v1.28h-1.28h-2.57h-1.28v-1.28V42.2"/>
		<path d="M117.98,42.2v-1.28h1.28h2.57h1.28v1.28v2.57v1.28h-1.28h-2.57h-1.28v-1.28V42.2"/>
		<path d="M128.26,46.05h-1.28c0.71,0,1.28,0.58,1.28,1.28V46.05"/>
		<path d="M123.12,46.05h1.28c-0.71,0-1.28,0.58-1.28,1.28V46.05"/>
		<path d="M123.12,42.2v-1.28h1.28h2.57h1.28v1.28v2.57v1.28h-1.28h-2.57h-1.28v-1.28V42.2"/>
		<path d="M128.26,40.91v-1.28c0,0.71,0.58,1.28,1.28,1.28l0,0H128.26"/>
		<path d="M128.26,42.2v-1.28h1.28h2.57c0.71,0,1.28,0.58,1.28,1.28v2.57v1.28h-1.28h-2.57h-1.28v-1.28V42.2"/>
		<path d="M138.53,42.2v-1.28h1.28h2.57h1.28v1.28v2.57v1.28h-1.28h-2.57h-1.28v-1.28V42.2"/>
		<path d="M61.47,46.05h1.28c-0.71,0-1.28,0.58-1.28,1.28V46.05"/>
		<path d="M56.33,47.34v-1.28h1.28h2.57h1.28v1.28v2.57c0,0.71-0.58,1.28-1.28,1.28h-2.57c-0.71,0-1.28-0.58-1.28-1.28V47.34"/>
		<path d="M66.6,46.05h-1.28c0.71,0,1.28,0.58,1.28,1.28V46.05"/>
		<path d="M66.6,51.19h-1.28c0.71,0,1.28-0.58,1.28-1.28V51.19"/>
		<path d="M66.6,47.34v-1.28h1.28h2.57h1.28v1.28v2.57v1.28h-1.28h-2.57H66.6V49.9V47.34"/>
		<path d="M76.88,47.34v-1.28h1.28h2.57h1.28v1.28v2.57v1.28h-1.28h-2.57h-1.28V49.9V47.34"/>
		<path d="M87.16,47.34c0-0.71,0.58-1.28,1.28-1.28h2.57c0.71,0,1.28,0.58,1.28,1.28v2.57c0,0.71-0.58,1.28-1.28,1.28h-2.57
			c-0.71,0-1.28-0.58-1.28-1.28V47.34"/>
		<path d="M102.57,51.19V49.9c0,0.71,0.58,1.28,1.28,1.28H102.57"/>
		<path d="M97.43,51.19h-1.28c0.71,0,1.28-0.58,1.28-1.28V51.19"/>
		<path d="M97.43,47.34v-1.28h1.28h2.57h1.28v1.28v2.57v1.28h-1.28h-2.57h-1.28V49.9V47.34"/>
		<path d="M112.84,51.19V49.9c0,0.71,0.58,1.28,1.28,1.28H112.84"/>
		<path d="M107.71,51.19h-1.28c0.71,0,1.28-0.58,1.28-1.28V51.19"/>
		<path d="M107.71,47.34c0-0.71,0.58-1.28,1.28-1.28h2.57c0.71,0,1.28,0.58,1.28,1.28v2.57v1.28h-1.28h-2.57h-1.28V49.9V47.34"/>
		<path d="M123.12,46.05h1.28c-0.71,0-1.28,0.58-1.28,1.28V46.05"/>
		<path d="M123.12,51.19V49.9c0,0.71,0.58,1.28,1.28,1.28H123.12"/>
		<path d="M117.98,51.19h-1.28c0.71,0,1.28-0.58,1.28-1.28V51.19"/>
		<path d="M117.98,47.34v-1.28h1.28h2.57h1.28v1.28v2.57v1.28h-1.28h-2.57h-1.28V49.9V47.34"/>
		<path d="M128.26,46.05h-1.28c0.71,0,1.28,0.58,1.28,1.28V46.05"/>
		<path d="M128.26,47.34v-1.28h1.28h2.57h1.28v1.28v2.57c0,0.71-0.58,1.28-1.28,1.28h-2.57c-0.71,0-1.28-0.58-1.28-1.28V47.34"/>
		<path d="M138.53,47.34v-1.28h1.28h2.57h1.28v1.28v2.57c0,0.71-0.58,1.28-1.28,1.28h-2.57c-0.71,0-1.28-0.58-1.28-1.28V47.34"/>
		<path d="M66.6,51.19V49.9c0,0.71-0.58,1.28-1.28,1.28H66.6"/>
		<path d="M61.47,52.47c0-0.71,0.58-1.28,1.28-1.28h2.57h1.28v1.28v2.57v1.28h-1.28h-2.57h-1.28v-1.28V52.47"/>
		<path d="M66.6,56.33h1.28c-0.71,0-1.28,0.58-1.28,1.28l0,0V56.33"/>
		<path d="M66.6,52.47v-1.28h1.28h2.57h1.28v1.28v2.57c0,0.71-0.58,1.28-1.28,1.28h-2.57H66.6v-1.28V52.47"/>
		<path d="M76.88,52.47v-1.28h1.28h2.57h1.28v1.28v2.57v1.28h-1.28h-2.57h-1.28v-1.28V52.47"/>
		<path d="M97.43,51.19V49.9c0,0.71-0.58,1.28-1.28,1.28H97.43"/>
		<path d="M92.29,52.47c0-0.71,0.58-1.28,1.28-1.28h2.57h1.28v1.28v2.57v1.28h-1.28h-2.57h-1.28v-1.28V52.47"/>
		<path d="M97.43,56.33h1.28c-0.71,0-1.28,0.58-1.28,1.28l0,0V56.33"/>
		<path d="M97.43,52.47v-1.28h1.28h2.57h1.28v1.28v2.57v1.28h-1.28h-2.57h-1.28v-1.28V52.47"/>
		<path d="M102.57,51.19V49.9c0,0.71,0.58,1.28,1.28,1.28H102.57"/>
		<path d="M107.71,51.19V49.9c0,0.71-0.58,1.28-1.28,1.28H107.71"/>
		<path d="M107.71,56.33h-1.28c0.71,0,1.28,0.58,1.28,1.28l0,0V56.33"/>
		<path d="M102.57,52.47v-1.28h1.28h2.57h1.28v1.28v2.57v1.28h-1.28h-2.57h-1.28v-1.28V52.47"/>
		<path d="M107.71,52.47v-1.28h1.28h2.57h1.28v1.28v2.57v1.28h-1.28h-2.57h-1.28v-1.28V52.47"/>
		<path d="M112.84,51.19V49.9c0,0.71,0.58,1.28,1.28,1.28H112.84"/>
		<path d="M117.98,51.19V49.9c0,0.71-0.58,1.28-1.28,1.28H117.98"/>
		<path d="M112.84,56.33h1.28c-0.71,0-1.28,0.58-1.28,1.28l0,0V56.33"/>
		<path d="M112.84,52.47v-1.28h1.28h2.57h1.28v1.28v2.57v1.28h-1.28h-2.57h-1.28v-1.28V52.47"/>
		<path d="M123.12,56.33h-1.28c0.71,0,1.28,0.58,1.28,1.28l0,0V56.33"/>
		<path d="M117.98,52.47v-1.28h1.28h2.57h1.28v1.28v2.57v1.28h-1.28h-2.57h-1.28v-1.28V52.47"/>
		<path d="M123.12,51.19V49.9c0,0.71,0.58,1.28,1.28,1.28H123.12"/>
		<path d="M123.12,52.47v-1.28h1.28h2.57c0.71,0,1.28,0.58,1.28,1.28v2.57v1.28h-1.28h-2.57h-1.28v-1.28V52.47"/>
		<path d="M138.53,56.33v-1.28c0,0.71,0.58,1.28,1.28,1.28H138.53"/>
		<path d="M133.4,52.47c0-0.71,0.58-1.28,1.28-1.28h2.57c0.71,0,1.28,0.58,1.28,1.28v2.57v1.28h-1.28h-2.57h-1.28v-1.28V52.47"/>
		<path d="M35.78,61.47v-1.28c0,0.71,0.58,1.28,1.28,1.28H35.78"/>
		<path d="M30.64,61.47h-1.28c0.71,0,1.28-0.58,1.28-1.28V61.47"/>
		<path d="M30.64,57.61c0-0.71,0.58-1.28,1.28-1.28l0,0h2.57c0.71,0,1.28,0.58,1.28,1.28l0,0v2.57v1.28h-1.28h-2.57h-1.28v-1.28
			V57.61"/>
		<path d="M46.05,57.61c0-0.71,0.58-1.28,1.28-1.28l0,0h2.57c0.71,0,1.28,0.58,1.28,1.28l0,0v2.57c0,0.71-0.58,1.28-1.28,1.28h-2.57
			c-0.71,0-1.28-0.58-1.28-1.28V57.61"/>
		<path d="M66.6,56.33h1.28c-0.71,0-1.28,0.58-1.28,1.28l0,0V56.33"/>
		<path d="M61.47,57.61v-1.28h1.28h2.57h1.28v1.28v2.57v1.28h-1.28h-2.57h-1.28v-1.28V57.61"/>
		<path d="M76.88,57.61v-1.28h1.28h2.57h1.28v1.28v2.57c0,0.71-0.58,1.28-1.28,1.28h-2.57c-0.71,0-1.28-0.58-1.28-1.28V57.61"/>
		<path d="M97.43,56.33h1.28c-0.71,0-1.28,0.58-1.28,1.28l0,0V56.33"/>
		<path d="M97.43,61.47v-1.28c0,0.71,0.58,1.28,1.28,1.28H97.43"/>
		<path d="M92.29,61.47h-1.28c0.71,0,1.28-0.58,1.28-1.28V61.47"/>
		<path d="M92.29,57.61v-1.28h1.28h2.57h1.28v1.28v2.57v1.28h-1.28h-2.57h-1.28v-1.28V57.61"/>
		<path d="M107.71,56.33h-1.28c0.71,0,1.28,0.58,1.28,1.28l0,0V56.33"/>
		<path d="M112.84,56.33h1.28c-0.71,0-1.28,0.58-1.28,1.28l0,0V56.33"/>
		<path d="M107.71,61.47h-1.28c0.71,0,1.28-0.58,1.28-1.28V61.47"/>
		<path d="M107.71,57.61v-1.28h1.28h2.57h1.28v1.28v2.57v1.28h-1.28h-2.57h-1.28v-1.28V57.61"/>
		<path d="M123.12,56.33h-1.28c0.71,0,1.28,0.58,1.28,1.28l0,0V56.33"/>
		<path d="M123.12,57.61v-1.28h1.28h2.57h1.28v1.28v2.57c0,0.71-0.58,1.28-1.28,1.28h-2.57c-0.71,0-1.28-0.58-1.28-1.28V57.61"/>
		<path d="M138.53,61.47h-1.28c0.71,0,1.28,0.58,1.28,1.28l0,0V61.47"/>
		<path d="M133.4,57.61v-1.28h1.28h2.57h1.28v1.28v2.57v1.28h-1.28h-2.57c-0.71,0-1.28-0.58-1.28-1.28V57.61"/>
		<path d="M138.53,56.33v-1.28c0,0.71,0.58,1.28,1.28,1.28H138.53"/>
		<path d="M138.53,57.61v-1.28h1.28h2.57c0.71,0,1.28,0.58,1.28,1.28l0,0v2.57v1.28h-1.28h-2.57h-1.28v-1.28V57.61"/>
		<path d="M153.95,57.61c0-0.71,0.58-1.28,1.28-1.28l0,0h2.57h1.28v1.28v2.57v1.28h-1.28h-2.57c-0.71,0-1.28-0.58-1.28-1.28V57.61"
			/>
		<path d="M164.22,61.47h-1.28c0.71,0,1.28,0.58,1.28,1.28l0,0V61.47"/>
		<path d="M159.09,57.61v-1.28h1.28h2.57h1.28v1.28v2.57v1.28h-1.28h-2.57h-1.28v-1.28V57.61"/>
		<path d="M164.22,57.61v-1.28h1.28h2.57c0.71,0,1.28,0.58,1.28,1.28l0,0v2.57v1.28h-1.28h-2.57h-1.28v-1.28V57.61"/>
		<path d="M179.64,61.47h-1.28c0.71,0,1.28,0.58,1.28,1.28l0,0V61.47"/>
		<path d="M174.5,57.61c0-0.71,0.58-1.28,1.28-1.28l0,0h2.57h1.28v1.28v2.57v1.28h-1.28h-2.57c-0.71,0-1.28-0.58-1.28-1.28V57.61"/>
		<path d="M179.64,57.61v-1.28h1.28h2.57c0.71,0,1.28,0.58,1.28,1.28l0,0v2.57v1.28h-1.28h-2.57h-1.28v-1.28V57.61"/>
		<path d="M15.22,62.75c0-0.71,0.58-1.28,1.28-1.28l0,0h2.57h1.28v1.28v2.57v1.28h-1.28h-2.57c-0.71,0-1.28-0.58-1.28-1.28V62.75"/>
		<path d="M25.5,66.6h-1.28c0.71,0,1.28,0.58,1.28,1.28V66.6"/>
		<path d="M20.36,62.75v-1.28h1.28h2.57h1.28v1.28v2.57v1.28h-1.28h-2.57h-1.28v-1.28V62.75"/>
		<path d="M30.64,61.47v-1.28c0,0.71-0.58,1.28-1.28,1.28H30.64"/>
		<path d="M25.5,62.75v-1.28h1.28h2.57h1.28v1.28v2.57v1.28h-1.28h-2.57H25.5v-1.28V62.75"/>
		<path d="M30.64,66.6h1.28c-0.71,0-1.28,0.58-1.28,1.28V66.6"/>
		<path d="M30.64,62.75v-1.28h1.28h2.57h1.28v1.28v2.57v1.28h-1.28h-2.57h-1.28v-1.28V62.75"/>
		<path d="M35.78,61.47v-1.28c0,0.71,0.58,1.28,1.28,1.28H35.78"/>
		<path d="M35.78,62.75v-1.28h1.28h2.57c0.71,0,1.28,0.58,1.28,1.28l0,0v2.57c0,0.71-0.58,1.28-1.28,1.28h-2.57h-1.28v-1.28V62.75"
			/>
		<path d="M51.19,62.75c0-0.71,0.58-1.28,1.28-1.28l0,0h2.57c0.71,0,1.28,0.58,1.28,1.28l0,0v2.57c0,0.71-0.58,1.28-1.28,1.28h-2.57
			c-0.71,0-1.28-0.58-1.28-1.28V62.75"/>
		<path d="M61.47,62.75v-1.28h1.28h2.57h1.28v1.28v2.57c0,0.71-0.58,1.28-1.28,1.28h-2.57c-0.71,0-1.28-0.58-1.28-1.28V62.75"/>
		<path d="M71.74,62.75c0-0.71,0.58-1.28,1.28-1.28l0,0h2.57c0.71,0,1.28,0.58,1.28,1.28l0,0v2.57c0,0.71-0.58,1.28-1.28,1.28h-2.57
			c-0.71,0-1.28-0.58-1.28-1.28V62.75"/>
		<path d="M92.29,61.47v-1.28c0,0.71-0.58,1.28-1.28,1.28H92.29"/>
		<path d="M92.29,66.6h-1.28c0.71,0,1.28,0.58,1.28,1.28V66.6"/>
		<path d="M87.16,62.75c0-0.71,0.58-1.28,1.28-1.28l0,0h2.57h1.28v1.28v2.57v1.28h-1.28h-2.57c-0.71,0-1.28-0.58-1.28-1.28V62.75"/>
		<path d="M92.29,62.75v-1.28h1.28h2.57h1.28v1.28v2.57v1.28h-1.28h-2.57h-1.28v-1.28V62.75"/>
		<path d="M97.43,61.47v-1.28c0,0.71,0.58,1.28,1.28,1.28H97.43"/>
		<path d="M97.43,66.6h1.28c-0.71,0-1.28,0.58-1.28,1.28V66.6"/>
		<path d="M97.43,62.75v-1.28h1.28h2.57h1.28v1.28v2.57v1.28h-1.28h-2.57h-1.28v-1.28V62.75"/>
		<path d="M107.71,61.47v-1.28c0,0.71-0.58,1.28-1.28,1.28H107.71"/>
		<path d="M102.57,62.75v-1.28h1.28h2.57h1.28v1.28v2.57v1.28h-1.28h-2.57h-1.28v-1.28V62.75"/>
		<path d="M107.71,62.75v-1.28h1.28h2.57h1.28v1.28v2.57c0,0.71-0.58,1.28-1.28,1.28h-2.57h-1.28v-1.28V62.75"/>
		<path d="M138.53,61.47h-1.28c0.71,0,1.28,0.58,1.28,1.28l0,0V61.47"/>
		<path d="M138.53,62.75v-1.28h1.28h2.57h1.28v1.28v2.57c0,0.71-0.58,1.28-1.28,1.28h-2.57c-0.71,0-1.28-0.58-1.28-1.28V62.75"/>
		<path d="M148.81,62.75c0-0.71,0.58-1.28,1.28-1.28l0,0h2.57c0.71,0,1.28,0.58,1.28,1.28l0,0v2.57c0,0.71-0.58,1.28-1.28,1.28
			h-2.57c-0.71,0-1.28-0.58-1.28-1.28V62.75"/>
		<path d="M164.22,61.47h-1.28c0.71,0,1.28,0.58,1.28,1.28l0,0V61.47"/>
		<path d="M164.22,62.75v-1.28h1.28h2.57h1.28v1.28v2.57c0,0.71-0.58,1.28-1.28,1.28h-2.57c-0.71,0-1.28-0.58-1.28-1.28V62.75"/>
		<path d="M179.64,62.75v-1.28h1.28h2.57h1.28v1.28v2.57v1.28h-1.28h-2.57h-1.28v-1.28V62.75"/>
		<path d="M25.5,66.6h-1.28c0.71,0,1.28,0.58,1.28,1.28V66.6"/>
		<path d="M30.64,66.6h1.28c-0.71,0-1.28,0.58-1.28,1.28V66.6"/>
		<path d="M30.64,71.74v-1.28c0,0.71,0.58,1.28,1.28,1.28H30.64"/>
		<path d="M25.5,71.74h-1.28c0.71,0,1.28-0.58,1.28-1.28V71.74"/>
		<path d="M25.5,67.89V66.6h1.28h2.57h1.28v1.28v2.57v1.28h-1.28h-2.57H25.5v-1.28V67.89"/>
		<path d="M40.91,67.89c0-0.71,0.58-1.28,1.28-1.28h2.57h1.28v1.28v2.57v1.28h-1.28H42.2c-0.71,0-1.28-0.58-1.28-1.28V67.89"/>
		<path d="M46.05,67.89V66.6h1.28h2.57c0.71,0,1.28,0.58,1.28,1.28v2.57c0,0.71-0.58,1.28-1.28,1.28h-2.57h-1.28v-1.28V67.89"/>
		<path d="M71.74,71.74v-1.28c0,0.71,0.58,1.28,1.28,1.28H71.74"/>
		<path d="M66.6,67.89c0-0.71,0.58-1.28,1.28-1.28h2.57c0.71,0,1.28,0.58,1.28,1.28v2.57v1.28h-1.28h-2.57H66.6v-1.28V67.89"/>
		<path d="M76.88,71.74h-1.28c0.71,0,1.28-0.58,1.28-1.28V71.74"/>
		<path d="M76.88,67.89c0-0.71,0.58-1.28,1.28-1.28h2.57h1.28v1.28v2.57v1.28h-1.28h-2.57h-1.28v-1.28V67.89"/>
		<path d="M87.16,71.74v-1.28c0,0.71,0.58,1.28,1.28,1.28H87.16"/>
		<path d="M82.02,67.89V66.6h1.28h2.57c0.71,0,1.28,0.58,1.28,1.28v2.57v1.28h-1.28H83.3h-1.28v-1.28V67.89"/>
		<path d="M92.29,66.6h-1.28c0.71,0,1.28,0.58,1.28,1.28V66.6"/>
		<path d="M97.43,66.6h1.28c-0.71,0-1.28,0.58-1.28,1.28V66.6"/>
		<path d="M97.43,71.74v-1.28c0,0.71,0.58,1.28,1.28,1.28H97.43"/>
		<path d="M92.29,71.74h-1.28c0.71,0,1.28-0.58,1.28-1.28V71.74"/>
		<path d="M92.29,67.89V66.6h1.28h2.57h1.28v1.28v2.57v1.28h-1.28h-2.57h-1.28v-1.28V67.89"/>
		<path d="M117.98,67.89c0-0.71,0.58-1.28,1.28-1.28h2.57h1.28v1.28v2.57v1.28h-1.28h-2.57h-1.28v-1.28V67.89"/>
		<path d="M123.12,71.74h1.28c-0.71,0-1.28,0.58-1.28,1.28V71.74"/>
		<path d="M123.12,67.89V66.6h1.28h2.57h1.28v1.28v2.57v1.28h-1.28h-2.57h-1.28v-1.28V67.89"/>
		<path d="M128.26,67.89V66.6h1.28h2.57c0.71,0,1.28,0.58,1.28,1.28v2.57c0,0.71-0.58,1.28-1.28,1.28h-2.57h-1.28v-1.28V67.89"/>
		<path d="M179.64,67.89V66.6h1.28h2.57h1.28v1.28v2.57v1.28h-1.28h-2.57h-1.28v-1.28V67.89"/>
		<path d="M15.22,73.03c0-0.71,0.58-1.28,1.28-1.28h2.57h1.28v1.28v2.57v1.28h-1.28h-2.57c-0.71,0-1.28-0.58-1.28-1.28V73.03"/>
		<path d="M25.5,71.74v-1.28c0,0.71-0.58,1.28-1.28,1.28H25.5"/>
		<path d="M20.36,73.03v-1.28h1.28h2.57h1.28v1.28v2.57v1.28h-1.28h-2.57h-1.28v-1.28V73.03"/>
		<path d="M25.5,73.03v-1.28h1.28h2.57h1.28v1.28v2.57v1.28h-1.28h-2.57H25.5v-1.28V73.03"/>
		<path d="M30.64,71.74v-1.28c0,0.71,0.58,1.28,1.28,1.28H30.64"/>
		<path d="M35.78,76.88h-1.28c0.71,0,1.28,0.58,1.28,1.28V76.88"/>
		<path d="M30.64,76.88h1.28c-0.71,0-1.28,0.58-1.28,1.28V76.88"/>
		<path d="M30.64,73.03v-1.28h1.28h2.57h1.28v1.28v2.57v1.28h-1.28h-2.57h-1.28v-1.28V73.03"/>
		<path d="M35.78,73.03v-1.28h1.28h2.57c0.71,0,1.28,0.58,1.28,1.28v2.57v1.28h-1.28h-2.57h-1.28v-1.28V73.03"/>
		<path d="M56.33,73.03c0-0.71,0.58-1.28,1.28-1.28h2.57c0.71,0,1.28,0.58,1.28,1.28v2.57c0,0.71-0.58,1.28-1.28,1.28h-2.57
			c-0.71,0-1.28-0.58-1.28-1.28V73.03"/>
		<path d="M66.6,76.88h-1.28c0.71,0,1.28-0.58,1.28-1.28V76.88"/>
		<path d="M66.6,73.03v-1.28h1.28h2.57h1.28v1.28v2.57v1.28h-1.28h-2.57H66.6v-1.28V73.03"/>
		<path d="M71.74,71.74v-1.28c0,0.71,0.58,1.28,1.28,1.28H71.74"/>
		<path d="M76.88,71.74v-1.28c0,0.71-0.58,1.28-1.28,1.28H76.88"/>
		<path d="M71.74,73.03v-1.28h1.28h2.57h1.28v1.28v2.57v1.28h-1.28h-2.57h-1.28v-1.28V73.03"/>
		<path d="M76.88,76.88h1.28c-0.71,0-1.28,0.58-1.28,1.28V76.88"/>
		<path d="M76.88,73.03v-1.28h1.28h2.57h1.28v1.28v2.57v1.28h-1.28h-2.57h-1.28v-1.28V73.03"/>
		<path d="M82.02,73.03v-1.28h1.28h2.57h1.28v1.28v2.57v1.28h-1.28H83.3h-1.28v-1.28V73.03"/>
		<path d="M87.16,71.74v-1.28c0,0.71,0.58,1.28,1.28,1.28H87.16"/>
		<path d="M92.29,71.74v-1.28c0,0.71-0.58,1.28-1.28,1.28H92.29"/>
		<path d="M87.16,73.03v-1.28h1.28h2.57h1.28v1.28v2.57v1.28h-1.28h-2.57h-1.28v-1.28V73.03"/>
		<path d="M92.29,73.03v-1.28h1.28h2.57h1.28v1.28v2.57v1.28h-1.28h-2.57h-1.28v-1.28V73.03"/>
		<path d="M97.43,71.74v-1.28c0,0.71,0.58,1.28,1.28,1.28H97.43"/>
		<path d="M97.43,73.03v-1.28h1.28h2.57c0.71,0,1.28,0.58,1.28,1.28v2.57c0,0.71-0.58,1.28-1.28,1.28h-2.57h-1.28v-1.28V73.03"/>
		<path d="M123.12,71.74h1.28c-0.71,0-1.28,0.58-1.28,1.28V71.74"/>
		<path d="M117.98,73.03v-1.28h1.28h2.57h1.28v1.28v2.57c0,0.71-0.58,1.28-1.28,1.28h-2.57c-0.71,0-1.28-0.58-1.28-1.28V73.03"/>
		<path d="M133.4,73.03c0-0.71,0.58-1.28,1.28-1.28h2.57c0.71,0,1.28,0.58,1.28,1.28v2.57c0,0.71-0.58,1.28-1.28,1.28h-2.57
			c-0.71,0-1.28-0.58-1.28-1.28V73.03"/>
		<path d="M164.22,73.03c0-0.71,0.58-1.28,1.28-1.28h2.57c0.71,0,1.28,0.58,1.28,1.28v2.57c0,0.71-0.58,1.28-1.28,1.28h-2.57
			c-0.71,0-1.28-0.58-1.28-1.28V73.03"/>
		<path d="M179.64,73.03v-1.28h1.28h2.57h1.28v1.28v2.57v1.28h-1.28h-2.57h-1.28v-1.28V73.03"/>
		<path d="M20.36,76.88h-1.28c0.71,0,1.28,0.58,1.28,1.28V76.88"/>
		<path d="M20.36,78.16v-1.28h1.28h2.57h1.28v1.28v2.57v1.28h-1.28h-2.57h-1.28v-1.28V78.16"/>
		<path d="M30.64,76.88h1.28c-0.71,0-1.28,0.58-1.28,1.28V76.88"/>
		<path d="M25.5,82.02h1.28c-0.71,0-1.28,0.58-1.28,1.28l0,0V82.02"/>
		<path d="M25.5,78.16v-1.28h1.28h2.57h1.28v1.28v2.57c0,0.71-0.58,1.28-1.28,1.28h-2.57H25.5v-1.28V78.16"/>
		<path d="M35.78,76.88h-1.28c0.71,0,1.28,0.58,1.28,1.28V76.88"/>
		<path d="M35.78,82.02h-1.28c0.71,0,1.28-0.58,1.28-1.28V82.02"/>
		<path d="M35.78,78.16v-1.28h1.28h2.57h1.28v1.28v2.57v1.28h-1.28h-2.57h-1.28v-1.28V78.16"/>
		<path d="M51.19,82.02H49.9c0.71,0,1.28,0.58,1.28,1.28l0,0V82.02"/>
		<path d="M46.05,78.16c0-0.71,0.58-1.28,1.28-1.28h2.57h1.28v1.28v2.57v1.28H49.9h-2.57c-0.71,0-1.28-0.58-1.28-1.28V78.16"/>
		<path d="M51.19,78.16v-1.28h1.28h2.57c0.71,0,1.28,0.58,1.28,1.28v2.57v1.28h-1.28h-2.57h-1.28v-1.28V78.16"/>
		<path d="M66.6,76.88v-1.28c0,0.71-0.58,1.28-1.28,1.28H66.6"/>
		<path d="M61.47,78.16c0-0.71,0.58-1.28,1.28-1.28h2.57h1.28v1.28v2.57v1.28h-1.28h-2.57h-1.28v-1.28V78.16"/>
		<path d="M66.6,78.16v-1.28h1.28h2.57h1.28v1.28v2.57v1.28h-1.28h-2.57H66.6v-1.28V78.16"/>
		<path d="M76.88,76.88h1.28c-0.71,0-1.28,0.58-1.28,1.28V76.88"/>
		<path d="M71.74,82.02h1.28c-0.71,0-1.28,0.58-1.28,1.28l0,0V82.02"/>
		<path d="M71.74,78.16v-1.28h1.28h2.57h1.28v1.28v2.57c0,0.71-0.58,1.28-1.28,1.28h-2.57h-1.28v-1.28V78.16"/>
		<path d="M148.81,82.02h-1.28c0.71,0,1.28,0.58,1.28,1.28l0,0V82.02"/>
		<path d="M143.67,78.16c0-0.71,0.58-1.28,1.28-1.28h2.57h1.28v1.28v2.57v1.28h-1.28h-2.57c-0.71,0-1.28-0.58-1.28-1.28V78.16"/>
		<path d="M148.81,78.16v-1.28h1.28h2.57c0.71,0,1.28,0.58,1.28,1.28v2.57v1.28h-1.28h-2.57h-1.28v-1.28V78.16"/>
		<path d="M159.09,78.16c0-0.71,0.58-1.28,1.28-1.28h2.57c0.71,0,1.28,0.58,1.28,1.28v2.57c0,0.71-0.58,1.28-1.28,1.28h-2.57
			c-0.71,0-1.28-0.58-1.28-1.28V78.16"/>
		<path d="M179.64,78.16v-1.28h1.28h2.57h1.28v1.28v2.57v1.28h-1.28h-2.57h-1.28v-1.28V78.16"/>
		<path d="M25.5,82.02h1.28c-0.71,0-1.28,0.58-1.28,1.28l0,0V82.02"/>
		<path d="M25.5,87.16v-1.28c0,0.71,0.58,1.28,1.28,1.28l0,0H25.5"/>
		<path d="M20.36,87.16h-1.28c0.71,0,1.28-0.58,1.28-1.28l0,0V87.16"/>
		<path d="M20.36,83.3v-1.28h1.28h2.57h1.28v1.28v2.57v1.28h-1.28h-2.57h-1.28v-1.28V83.3"/>
		<path d="M35.78,82.02v-1.28c0,0.71-0.58,1.28-1.28,1.28H35.78"/>
		<path d="M35.78,87.16h-1.28c0.71,0,1.28,0.58,1.28,1.28l0,0V87.16"/>
		<path d="M30.64,83.3c0-0.71,0.58-1.28,1.28-1.28l0,0h2.57h1.28v1.28v2.57v1.28h-1.28h-2.57c-0.71,0-1.28-0.58-1.28-1.28l0,0V83.3"
			/>
		<path d="M35.78,83.3v-1.28h1.28h2.57h1.28v1.28v2.57v1.28h-1.28h-2.57h-1.28v-1.28V83.3"/>
		<path d="M51.19,82.02H49.9c0.71,0,1.28,0.58,1.28,1.28l0,0V82.02"/>
		<path d="M51.19,87.16H49.9c0.71,0,1.28-0.58,1.28-1.28l0,0V87.16"/>
		<path d="M51.19,83.3v-1.28h1.28h2.57h1.28v1.28v2.57v1.28h-1.28h-2.57h-1.28v-1.28V83.3"/>
		<path d="M66.6,87.16h-1.28c0.71,0,1.28,0.58,1.28,1.28l0,0V87.16"/>
		<path d="M61.47,83.3v-1.28h1.28h2.57h1.28v1.28v2.57v1.28h-1.28h-2.57c-0.71,0-1.28-0.58-1.28-1.28l0,0V83.3"/>
		<path d="M71.74,82.02h1.28c-0.71,0-1.28,0.58-1.28,1.28l0,0V82.02"/>
		<path d="M66.6,83.3v-1.28h1.28h2.57h1.28v1.28v2.57v1.28h-1.28h-2.57H66.6v-1.28V83.3"/>
		<path d="M128.26,83.3c0-0.71,0.58-1.28,1.28-1.28l0,0h2.57c0.71,0,1.28,0.58,1.28,1.28l0,0v2.57c0,0.71-0.58,1.28-1.28,1.28l0,0
			h-2.57c-0.71,0-1.28-0.58-1.28-1.28l0,0V83.3"/>
		<path d="M138.53,83.3c0-0.71,0.58-1.28,1.28-1.28l0,0h2.57c0.71,0,1.28,0.58,1.28,1.28l0,0v2.57c0,0.71-0.58,1.28-1.28,1.28l0,0
			h-2.57c-0.71,0-1.28-0.58-1.28-1.28l0,0V83.3"/>
		<path d="M148.81,82.02h-1.28c0.71,0,1.28,0.58,1.28,1.28l0,0V82.02"/>
		<path d="M148.81,83.3v-1.28h1.28h2.57h1.28v1.28v2.57v1.28h-1.28h-2.57h-1.28v-1.28V83.3"/>
		<path d="M169.36,83.3c0-0.71,0.58-1.28,1.28-1.28l0,0h2.57c0.71,0,1.28,0.58,1.28,1.28l0,0v2.57c0,0.71-0.58,1.28-1.28,1.28l0,0
			h-2.57c-0.71,0-1.28-0.58-1.28-1.28l0,0V83.3"/>
		<path d="M179.64,83.3v-1.28h1.28h2.57h1.28v1.28v2.57c0,0.71-0.58,1.28-1.28,1.28l0,0h-2.57c-0.71,0-1.28-0.58-1.28-1.28l0,0V83.3
			"/>
		<path d="M15.22,88.44c0-0.71,0.58-1.28,1.28-1.28l0,0h2.57h1.28v1.28v2.57v1.28h-1.28h-2.57h-1.28v-1.28V88.44"/>
		<path d="M20.36,88.44v-1.28h1.28h2.57h1.28v1.28v2.57v1.28h-1.28h-2.57h-1.28v-1.28V88.44"/>
		<path d="M25.5,87.16v-1.28c0,0.71,0.58,1.28,1.28,1.28l0,0H25.5"/>
		<path d="M25.5,92.29h1.28c-0.71,0-1.28,0.58-1.28,1.28V92.29"/>
		<path d="M25.5,88.44v-1.28h1.28h2.57c0.71,0,1.28,0.58,1.28,1.28l0,0v2.57c0,0.71-0.58,1.28-1.28,1.28h-2.57H25.5v-1.28V88.44"/>
		<path d="M35.78,87.16h-1.28c0.71,0,1.28,0.58,1.28,1.28l0,0V87.16"/>
		<path d="M35.78,92.29h-1.28c0.71,0,1.28-0.58,1.28-1.28V92.29"/>
		<path d="M35.78,88.44v-1.28h1.28h2.57h1.28v1.28v2.57v1.28h-1.28h-2.57h-1.28v-1.28V88.44"/>
		<path d="M51.19,87.16v-1.28c0,0.71-0.58,1.28-1.28,1.28l0,0H51.19"/>
		<path d="M51.19,92.29H49.9c0.71,0,1.28,0.58,1.28,1.28V92.29"/>
		<path d="M46.05,88.44c0-0.71,0.58-1.28,1.28-1.28l0,0h2.57h1.28v1.28v2.57v1.28H49.9h-2.57c-0.71,0-1.28-0.58-1.28-1.28V88.44"/>
		<path d="M51.19,88.44v-1.28h1.28h2.57h1.28v1.28v2.57v1.28h-1.28h-2.57h-1.28v-1.28V88.44"/>
		<path d="M66.6,87.16h-1.28c0.71,0,1.28,0.58,1.28,1.28l0,0V87.16"/>
		<path d="M66.6,92.29h-1.28c0.71,0,1.28-0.58,1.28-1.28V92.29"/>
		<path d="M66.6,88.44v-1.28h1.28h2.57h1.28v1.28v2.57v1.28h-1.28h-2.57H66.6v-1.28V88.44"/>
		<path d="M128.26,92.29v-1.28c0,0.71,0.58,1.28,1.28,1.28H128.26"/>
		<path d="M123.12,88.44c0-0.71,0.58-1.28,1.28-1.28l0,0h2.57c0.71,0,1.28,0.58,1.28,1.28l0,0v2.57v1.28h-1.28h-2.57h-1.28v-1.28
			V88.44"/>
		<path d="M138.53,92.29v-1.28c0,0.71,0.58,1.28,1.28,1.28H138.53"/>
		<path d="M133.4,92.29h-1.28c0.71,0,1.28-0.58,1.28-1.28V92.29"/>
		<path d="M133.4,88.44c0-0.71,0.58-1.28,1.28-1.28l0,0h2.57c0.71,0,1.28,0.58,1.28,1.28l0,0v2.57v1.28h-1.28h-2.57h-1.28v-1.28
			V88.44"/>
		<path d="M148.81,88.44v-1.28h1.28h2.57h1.28v1.28v2.57v1.28h-1.28h-2.57h-1.28v-1.28V88.44"/>
		<path d="M164.22,88.44c0-0.71,0.58-1.28,1.28-1.28l0,0h2.57c0.71,0,1.28,0.58,1.28,1.28l0,0v2.57c0,0.71-0.58,1.28-1.28,1.28
			h-2.57c-0.71,0-1.28-0.58-1.28-1.28V88.44"/>
		<path d="M179.64,92.29v-1.28c0,0.71,0.58,1.28,1.28,1.28H179.64"/>
		<path d="M174.5,92.29h-1.28c0.71,0,1.28-0.58,1.28-1.28V92.29"/>
		<path d="M174.5,88.44c0-0.71,0.58-1.28,1.28-1.28l0,0h2.57c0.71,0,1.28,0.58,1.28,1.28l0,0v2.57v1.28h-1.28h-2.57h-1.28v-1.28
			V88.44"/>
		<path d="M15.22,93.58v-1.28h1.28h2.57h1.28v1.28v2.57v1.28h-1.28h-2.57c-0.71,0-1.28-0.58-1.28-1.28l0,0V93.58"/>
		<path d="M25.5,92.29h1.28c-0.71,0-1.28,0.58-1.28,1.28V92.29"/>
		<path d="M20.36,93.58v-1.28h1.28h2.57h1.28v1.28v2.57c0,0.71-0.58,1.28-1.28,1.28l0,0h-2.57h-1.28v-1.28V93.58"/>
		<path d="M35.78,92.29v-1.28c0,0.71-0.58,1.28-1.28,1.28H35.78"/>
		<path d="M30.64,97.43h-1.28c0.71,0,1.28-0.58,1.28-1.28l0,0V97.43"/>
		<path d="M30.64,93.58c0-0.71,0.58-1.28,1.28-1.28h2.57h1.28v1.28v2.57v1.28h-1.28h-2.57h-1.28v-1.28V93.58"/>
		<path d="M40.91,97.43v-1.28c0,0.71,0.58,1.28,1.28,1.28l0,0H40.91"/>
		<path d="M35.78,93.58v-1.28h1.28h2.57h1.28v1.28v2.57v1.28h-1.28h-2.57h-1.28v-1.28V93.58"/>
		<path d="M51.19,92.29H49.9c0.71,0,1.28,0.58,1.28,1.28V92.29"/>
		<path d="M56.33,97.43v-1.28c0,0.71,0.58,1.28,1.28,1.28l0,0H56.33"/>
		<path d="M51.19,97.43H49.9c0.71,0,1.28-0.58,1.28-1.28l0,0V97.43"/>
		<path d="M51.19,93.58v-1.28h1.28h2.57h1.28v1.28v2.57v1.28h-1.28h-2.57h-1.28v-1.28V93.58"/>
		<path d="M66.6,92.29v-1.28c0,0.71-0.58,1.28-1.28,1.28H66.6"/>
		<path d="M61.47,93.58c0-0.71,0.58-1.28,1.28-1.28h2.57h1.28v1.28v2.57v1.28h-1.28h-2.57c-0.71,0-1.28-0.58-1.28-1.28l0,0V93.58"/>
		<path d="M66.6,93.58v-1.28h1.28h2.57h1.28v1.28v2.57c0,0.71-0.58,1.28-1.28,1.28l0,0h-2.57H66.6v-1.28V93.58"/>
		<path d="M123.12,93.58v-1.28h1.28h2.57h1.28v1.28v2.57v1.28h-1.28h-2.57h-1.28v-1.28V93.58"/>
		<path d="M128.26,92.29v-1.28c0,0.71,0.58,1.28,1.28,1.28H128.26"/>
		<path d="M133.4,92.29v-1.28c0,0.71-0.58,1.28-1.28,1.28H133.4"/>
		<path d="M128.26,97.43h1.28c-0.71,0-1.28,0.58-1.28,1.28l0,0V97.43"/>
		<path d="M128.26,93.58v-1.28h1.28h2.57h1.28v1.28v2.57v1.28h-1.28h-2.57h-1.28v-1.28V93.58"/>
		<path d="M133.4,93.58v-1.28h1.28h2.57h1.28v1.28v2.57v1.28h-1.28h-2.57h-1.28v-1.28V93.58"/>
		<path d="M138.53,92.29v-1.28c0,0.71,0.58,1.28,1.28,1.28H138.53"/>
		<path d="M138.53,93.58v-1.28h1.28h2.57c0.71,0,1.28,0.58,1.28,1.28v2.57c0,0.71-0.58,1.28-1.28,1.28l0,0h-2.57h-1.28v-1.28V93.58"
			/>
		<path d="M148.81,93.58v-1.28h1.28h2.57h1.28v1.28v2.57v1.28h-1.28h-2.57h-1.28v-1.28V93.58"/>
		<path d="M159.09,93.58c0-0.71,0.58-1.28,1.28-1.28h2.57c0.71,0,1.28,0.58,1.28,1.28v2.57c0,0.71-0.58,1.28-1.28,1.28l0,0h-2.57
			c-0.71,0-1.28-0.58-1.28-1.28l0,0V93.58"/>
		<path d="M174.5,92.29v-1.28c0,0.71-0.58,1.28-1.28,1.28H174.5"/>
		<path d="M169.36,93.58c0-0.71,0.58-1.28,1.28-1.28h2.57h1.28v1.28v2.57v1.28h-1.28h-2.57h-1.28v-1.28V93.58"/>
		<path d="M174.5,93.58v-1.28h1.28h2.57h1.28v1.28v2.57v1.28h-1.28h-2.57h-1.28v-1.28V93.58"/>
		<path d="M179.64,93.58v-1.28h1.28h2.57c0.71,0,1.28,0.58,1.28,1.28v2.57c0,0.71-0.58,1.28-1.28,1.28l0,0h-2.57h-1.28v-1.28V93.58"
			/>
		<path d="M30.64,97.43v-1.28c0,0.71-0.58,1.28-1.28,1.28l0,0H30.64"/>
		<path d="M25.5,102.57h-1.28c0.71,0,1.28-0.58,1.28-1.28l0,0V102.57"/>
		<path d="M25.5,98.72c0-0.71,0.58-1.28,1.28-1.28l0,0h2.57h1.28v1.28v2.57v1.28h-1.28h-2.57H25.5v-1.28V98.72"/>
		<path d="M30.64,102.57h1.28c-0.71,0-1.28,0.58-1.28,1.28l0,0V102.57"/>
		<path d="M30.64,98.72v-1.28h1.28h2.57h1.28v1.28v2.57v1.28h-1.28h-2.57h-1.28v-1.28V98.72"/>
		<path d="M40.91,102.57h-1.28c0.71,0,1.28,0.58,1.28,1.28l0,0V102.57"/>
		<path d="M35.78,98.72v-1.28h1.28h2.57h1.28v1.28v2.57v1.28h-1.28h-2.57h-1.28v-1.28V98.72"/>
		<path d="M40.91,97.43v-1.28c0,0.71,0.58,1.28,1.28,1.28l0,0H40.91"/>
		<path d="M40.91,98.72v-1.28h1.28h2.57h1.28v1.28v2.57v1.28h-1.28H42.2h-1.28v-1.28V98.72"/>
		<path d="M51.19,97.43v-1.28c0,0.71-0.58,1.28-1.28,1.28l0,0H51.19"/>
		<path d="M46.05,102.57h1.28c-0.71,0-1.28,0.58-1.28,1.28l0,0V102.57"/>
		<path d="M46.05,98.72v-1.28h1.28h2.57h1.28v1.28v2.57v1.28H49.9h-2.57h-1.28v-1.28V98.72"/>
		<path d="M51.19,98.72v-1.28h1.28h2.57h1.28v1.28v2.57v1.28h-1.28h-2.57h-1.28v-1.28V98.72"/>
		<path d="M56.33,97.43v-1.28c0,0.71,0.58,1.28,1.28,1.28l0,0H56.33"/>
		<path d="M56.33,98.72v-1.28h1.28h2.57c0.71,0,1.28,0.58,1.28,1.28l0,0v2.57c0,0.71-0.58,1.28-1.28,1.28l0,0h-2.57h-1.28v-1.28
			V98.72"/>
		<path d="M71.74,98.72c0-0.71,0.58-1.28,1.28-1.28l0,0h2.57c0.71,0,1.28,0.58,1.28,1.28l0,0v2.57c0,0.71-0.58,1.28-1.28,1.28l0,0
			h-2.57c-0.71,0-1.28-0.58-1.28-1.28l0,0V98.72"/>
		<path d="M128.26,97.43h1.28c-0.71,0-1.28,0.58-1.28,1.28l0,0V97.43"/>
		<path d="M123.12,98.72v-1.28h1.28h2.57h1.28v1.28v2.57c0,0.71-0.58,1.28-1.28,1.28l0,0h-2.57c-0.71,0-1.28-0.58-1.28-1.28l0,0
			V98.72"/>
		<path d="M148.81,98.72v-1.28h1.28h2.57h1.28v1.28v2.57c0,0.71-0.58,1.28-1.28,1.28l0,0h-2.57c-0.71,0-1.28-0.58-1.28-1.28l0,0
			V98.72"/>
		<path d="M169.36,98.72v-1.28h1.28h2.57h1.28v1.28v2.57v1.28h-1.28h-2.57h-1.28v-1.28V98.72"/>
		<path d="M179.64,97.43h1.28c-0.71,0-1.28,0.58-1.28,1.28l0,0V97.43"/>
		<path d="M179.64,102.57v-1.28c0,0.71,0.58,1.28,1.28,1.28l0,0H179.64"/>
		<path d="M174.5,98.72v-1.28h1.28h2.57h1.28v1.28v2.57v1.28h-1.28h-2.57h-1.28v-1.28V98.72"/>
		<path d="M25.5,102.57v-1.28c0,0.71-0.58,1.28-1.28,1.28l0,0H25.5"/>
		<path d="M25.5,107.71h-1.28c0.71,0,1.28,0.58,1.28,1.28l0,0V107.71"/>
		<path d="M20.36,103.85c0-0.71,0.58-1.28,1.28-1.28l0,0h2.57h1.28v1.28v2.57v1.28h-1.28h-2.57c-0.71,0-1.28-0.58-1.28-1.28V103.85"
			/>
		<path d="M30.64,102.57h1.28c-0.71,0-1.28,0.58-1.28,1.28l0,0V102.57"/>
		<path d="M30.64,107.71v-1.28c0,0.71,0.58,1.28,1.28,1.28H30.64"/>
		<path d="M25.5,103.85v-1.28h1.28h2.57h1.28v1.28v2.57v1.28h-1.28h-2.57H25.5v-1.28V103.85"/>
		<path d="M40.91,102.57h-1.28c0.71,0,1.28,0.58,1.28,1.28l0,0V102.57"/>
		<path d="M46.05,102.57h1.28c-0.71,0-1.28,0.58-1.28,1.28l0,0V102.57"/>
		<path d="M40.91,103.85v-1.28h1.28h2.57h1.28v1.28v2.57c0,0.71-0.58,1.28-1.28,1.28H42.2c-0.71,0-1.28-0.58-1.28-1.28V103.85"/>
		<path d="M66.6,107.71h-1.28c0.71,0,1.28,0.58,1.28,1.28l0,0V107.71"/>
		<path d="M61.47,103.85c0-0.71,0.58-1.28,1.28-1.28l0,0h2.57h1.28v1.28v2.57v1.28h-1.28h-2.57c-0.71,0-1.28-0.58-1.28-1.28V103.85"
			/>
		<path d="M71.74,107.71v-1.28c0,0.71,0.58,1.28,1.28,1.28H71.74"/>
		<path d="M66.6,103.85v-1.28h1.28h2.57c0.71,0,1.28,0.58,1.28,1.28l0,0v2.57v1.28h-1.28h-2.57H66.6v-1.28V103.85"/>
		<path d="M133.4,103.85c0-0.71,0.58-1.28,1.28-1.28l0,0h2.57c0.71,0,1.28,0.58,1.28,1.28l0,0v2.57c0,0.71-0.58,1.28-1.28,1.28
			h-2.57c-0.71,0-1.28-0.58-1.28-1.28V103.85"/>
		<path d="M169.36,103.85v-1.28h1.28h2.57h1.28v1.28v2.57v1.28h-1.28h-2.57h-1.28v-1.28V103.85"/>
		<path d="M179.64,107.71h-1.28c0.71,0,1.28,0.58,1.28,1.28l0,0V107.71"/>
		<path d="M174.5,107.71h1.28c-0.71,0-1.28,0.58-1.28,1.28l0,0V107.71"/>
		<path d="M174.5,103.85v-1.28h1.28h2.57h1.28v1.28v2.57v1.28h-1.28h-2.57h-1.28v-1.28V103.85"/>
		<path d="M179.64,103.85v-1.28h1.28h2.57c0.71,0,1.28,0.58,1.28,1.28l0,0v2.57v1.28h-1.28h-2.57h-1.28v-1.28V103.85"/>
		<path d="M25.5,107.71h-1.28c0.71,0,1.28,0.58,1.28,1.28l0,0V107.71"/>
		<path d="M25.5,108.99v-1.28h1.28h2.57h1.28v1.28v2.57v1.28h-1.28h-2.57H25.5v-1.28V108.99"/>
		<path d="M30.64,107.71v-1.28c0,0.71,0.58,1.28,1.28,1.28H30.64"/>
		<path d="M30.64,112.84h1.28c-0.71,0-1.28,0.58-1.28,1.28l0,0V112.84"/>
		<path d="M30.64,108.99v-1.28h1.28h2.57c0.71,0,1.28,0.58,1.28,1.28l0,0v2.57c0,0.71-0.58,1.28-1.28,1.28h-2.57h-1.28v-1.28V108.99
			"/>
		<path d="M46.05,108.99c0-0.71,0.58-1.28,1.28-1.28l0,0h2.57c0.71,0,1.28,0.58,1.28,1.28l0,0v2.57c0,0.71-0.58,1.28-1.28,1.28
			h-2.57c-0.71,0-1.28-0.58-1.28-1.28V108.99"/>
		<path d="M66.6,107.71h-1.28c0.71,0,1.28,0.58,1.28,1.28l0,0V107.71"/>
		<path d="M71.74,112.84h-1.28c0.71,0,1.28,0.58,1.28,1.28l0,0V112.84"/>
		<path d="M66.6,108.99v-1.28h1.28h2.57h1.28v1.28v2.57v1.28h-1.28h-2.57c-0.71,0-1.28-0.58-1.28-1.28V108.99"/>
		<path d="M71.74,107.71v-1.28c0,0.71,0.58,1.28,1.28,1.28H71.74"/>
		<path d="M71.74,108.99v-1.28h1.28h2.57c0.71,0,1.28,0.58,1.28,1.28l0,0v2.57v1.28h-1.28h-2.57h-1.28v-1.28V108.99"/>
		<path d="M128.26,112.84v-1.28c0,0.71,0.58,1.28,1.28,1.28H128.26"/>
		<path d="M123.12,108.99c0-0.71,0.58-1.28,1.28-1.28l0,0h2.57c0.71,0,1.28,0.58,1.28,1.28l0,0v2.57v1.28h-1.28h-2.57h-1.28v-1.28
			V108.99"/>
		<path d="M148.81,108.99c0-0.71,0.58-1.28,1.28-1.28l0,0h2.57h1.28v1.28v2.57v1.28h-1.28h-2.57c-0.71,0-1.28-0.58-1.28-1.28V108.99
			"/>
		<path d="M153.95,108.99v-1.28h1.28h2.57c0.71,0,1.28,0.58,1.28,1.28l0,0v2.57c0,0.71-0.58,1.28-1.28,1.28h-2.57h-1.28v-1.28
			V108.99"/>
		<path d="M174.5,107.71h1.28c-0.71,0-1.28,0.58-1.28,1.28l0,0V107.71"/>
		<path d="M169.36,108.99v-1.28h1.28h2.57h1.28v1.28v2.57c0,0.71-0.58,1.28-1.28,1.28h-2.57c-0.71,0-1.28-0.58-1.28-1.28V108.99"/>
		<path d="M179.64,108.99v-1.28h1.28h2.57h1.28v1.28v2.57c0,0.71-0.58,1.28-1.28,1.28h-2.57c-0.71,0-1.28-0.58-1.28-1.28V108.99"/>
		<path d="M30.64,112.84h1.28c-0.71,0-1.28,0.58-1.28,1.28l0,0V112.84"/>
		<path d="M25.5,114.13v-1.28h1.28h2.57h1.28v1.28v2.57c0,0.71-0.58,1.28-1.28,1.28l0,0h-2.57c-0.71,0-1.28-0.58-1.28-1.28l0,0
			V114.13"/>
		<path d="M35.78,114.13c0-0.71,0.58-1.28,1.28-1.28l0,0h2.57c0.71,0,1.28,0.58,1.28,1.28l0,0v2.57v1.28h-1.28h-2.57h-1.28v-1.28
			V114.13"/>
		<path d="M51.19,117.98H49.9c0.71,0,1.28-0.58,1.28-1.28l0,0V117.98"/>
		<path d="M51.19,114.13c0-0.71,0.58-1.28,1.28-1.28l0,0h2.57c0.71,0,1.28,0.58,1.28,1.28l0,0v2.57v1.28h-1.28h-2.57h-1.28v-1.28
			V114.13"/>
		<path d="M71.74,112.84h-1.28c0.71,0,1.28,0.58,1.28,1.28l0,0V112.84"/>
		<path d="M71.74,114.13v-1.28h1.28h2.57h1.28v1.28v2.57c0,0.71-0.58,1.28-1.28,1.28l0,0h-2.57c-0.71,0-1.28-0.58-1.28-1.28l0,0
			V114.13"/>
		<path d="M123.12,114.13v-1.28h1.28h2.57h1.28v1.28v2.57v1.28h-1.28h-2.57h-1.28v-1.28V114.13"/>
		<path d="M128.26,112.84v-1.28c0,0.71,0.58,1.28,1.28,1.28H128.26"/>
		<path d="M128.26,117.98h1.28c-0.71,0-1.28,0.58-1.28,1.28l0,0V117.98"/>
		<path d="M128.26,114.13v-1.28h1.28h2.57c0.71,0,1.28,0.58,1.28,1.28l0,0v2.57c0,0.71-0.58,1.28-1.28,1.28l0,0h-2.57h-1.28v-1.28
			V114.13"/>
		<path d="M143.67,114.13c0-0.71,0.58-1.28,1.28-1.28l0,0h2.57c0.71,0,1.28,0.58,1.28,1.28l0,0v2.57c0,0.71-0.58,1.28-1.28,1.28l0,0
			h-2.57c-0.71,0-1.28-0.58-1.28-1.28l0,0V114.13"/>
		<path d="M174.5,114.13c0-0.71,0.58-1.28,1.28-1.28l0,0h2.57c0.71,0,1.28,0.58,1.28,1.28l0,0v2.57v1.28h-1.28h-2.57h-1.28v-1.28
			V114.13"/>
		<path d="M15.22,119.27c0-0.71,0.58-1.28,1.28-1.28l0,0h2.57h1.28v1.28v2.57v1.28h-1.28h-2.57c-0.71,0-1.28-0.58-1.28-1.28l0,0
			V119.27"/>
		<path d="M20.36,119.27v-1.28h1.28h2.57c0.71,0,1.28,0.58,1.28,1.28l0,0v2.57v1.28h-1.28h-2.57h-1.28v-1.28V119.27"/>
		<path d="M35.78,119.27v-1.28h1.28h2.57h1.28v1.28v2.57c0,0.71-0.58,1.28-1.28,1.28l0,0h-2.57c-0.71,0-1.28-0.58-1.28-1.28l0,0
			V119.27"/>
		<path d="M51.19,117.98v-1.28c0,0.71-0.58,1.28-1.28,1.28l0,0H51.19"/>
		<path d="M46.05,119.27c0-0.71,0.58-1.28,1.28-1.28l0,0h2.57h1.28v1.28v2.57v1.28H49.9h-2.57c-0.71,0-1.28-0.58-1.28-1.28l0,0
			V119.27"/>
		<path d="M51.19,119.27v-1.28h1.28h2.57h1.28v1.28v2.57c0,0.71-0.58,1.28-1.28,1.28l0,0h-2.57h-1.28v-1.28V119.27"/>
		<path d="M128.26,117.98h1.28c-0.71,0-1.28,0.58-1.28,1.28l0,0V117.98"/>
		<path d="M123.12,119.27v-1.28h1.28h2.57h1.28v1.28v2.57c0,0.71-0.58,1.28-1.28,1.28l0,0h-2.57c-0.71,0-1.28-0.58-1.28-1.28l0,0
			V119.27"/>
		<path d="M133.4,123.12h-1.28c0.71,0,1.28-0.58,1.28-1.28l0,0V123.12"/>
		<path d="M133.4,119.27c0-0.71,0.58-1.28,1.28-1.28l0,0h2.57h1.28v1.28v2.57v1.28h-1.28h-2.57h-1.28v-1.28V119.27"/>
		<path d="M138.53,119.27v-1.28h1.28h2.57c0.71,0,1.28,0.58,1.28,1.28l0,0v2.57v1.28h-1.28h-2.57h-1.28v-1.28V119.27"/>
		<path d="M174.5,119.27v-1.28h1.28h2.57h1.28v1.28v2.57c0,0.71-0.58,1.28-1.28,1.28l0,0h-2.57c-0.71,0-1.28-0.58-1.28-1.28l0,0
			V119.27"/>
		<path d="M20.36,123.12h-1.28c0.71,0,1.28,0.58,1.28,1.28l0,0V123.12"/>
		<path d="M20.36,128.26h-1.28c0.71,0,1.28-0.58,1.28-1.28l0,0V128.26"/>
		<path d="M20.36,124.41v-1.28h1.28h2.57h1.28v1.28v2.57v1.28h-1.28h-2.57h-1.28v-1.28V124.41"/>
		<path d="M61.47,124.41c0-0.71,0.58-1.28,1.28-1.28l0,0h2.57h1.28v1.28v2.57v1.28h-1.28h-2.57h-1.28v-1.28V124.41"/>
		<path d="M66.6,124.41v-1.28h1.28h2.57h1.28v1.28v2.57v1.28h-1.28h-2.57H66.6v-1.28V124.41"/>
		<path d="M71.74,128.26h1.28c-0.71,0-1.28,0.58-1.28,1.28l0,0V128.26"/>
		<path d="M71.74,124.41v-1.28h1.28h2.57c0.71,0,1.28,0.58,1.28,1.28l0,0v2.57c0,0.71-0.58,1.28-1.28,1.28l0,0h-2.57h-1.28v-1.28
			V124.41"/>
		<path d="M82.02,124.41c0-0.71,0.58-1.28,1.28-1.28l0,0h2.57c0.71,0,1.28,0.58,1.28,1.28l0,0v2.57c0,0.71-0.58,1.28-1.28,1.28l0,0
			H83.3c-0.71,0-1.28-0.58-1.28-1.28l0,0V124.41"/>
		<path d="M92.29,124.41c0-0.71,0.58-1.28,1.28-1.28l0,0h2.57h1.28v1.28v2.57v1.28h-1.28h-2.57c-0.71,0-1.28-0.58-1.28-1.28l0,0
			V124.41"/>
		<path d="M97.43,124.41v-1.28h1.28h2.57c0.71,0,1.28,0.58,1.28,1.28l0,0v2.57c0,0.71-0.58,1.28-1.28,1.28l0,0h-2.57h-1.28v-1.28
			V124.41"/>
		<path d="M112.84,124.41c0-0.71,0.58-1.28,1.28-1.28l0,0h2.57h1.28v1.28v2.57v1.28h-1.28h-2.57h-1.28v-1.28V124.41"/>
		<path d="M117.98,128.26h1.28c-0.71,0-1.28,0.58-1.28,1.28l0,0V128.26"/>
		<path d="M117.98,124.41v-1.28h1.28h2.57c0.71,0,1.28,0.58,1.28,1.28l0,0v2.57c0,0.71-0.58,1.28-1.28,1.28l0,0h-2.57h-1.28v-1.28
			V124.41"/>
		<path d="M133.4,123.12v-1.28c0,0.71-0.58,1.28-1.28,1.28l0,0H133.4"/>
		<path d="M133.4,128.26h-1.28c0.71,0,1.28,0.58,1.28,1.28l0,0V128.26"/>
		<path d="M128.26,124.41c0-0.71,0.58-1.28,1.28-1.28l0,0h2.57h1.28v1.28v2.57v1.28h-1.28h-2.57c-0.71,0-1.28-0.58-1.28-1.28l0,0
			V124.41"/>
		<path d="M133.4,124.41v-1.28h1.28h2.57h1.28v1.28v2.57v1.28h-1.28h-2.57h-1.28v-1.28V124.41"/>
		<path d="M143.67,128.26v-1.28c0,0.71,0.58,1.28,1.28,1.28l0,0H143.67"/>
		<path d="M138.53,124.41v-1.28h1.28h2.57h1.28v1.28v2.57v1.28h-1.28h-2.57h-1.28v-1.28V124.41"/>
		<path d="M164.22,124.41c0-0.71,0.58-1.28,1.28-1.28l0,0h2.57c0.71,0,1.28,0.58,1.28,1.28l0,0v2.57c0,0.71-0.58,1.28-1.28,1.28l0,0
			h-2.57c-0.71,0-1.28-0.58-1.28-1.28l0,0V124.41"/>
		<path d="M179.64,124.41c0-0.71,0.58-1.28,1.28-1.28l0,0h2.57c0.71,0,1.28,0.58,1.28,1.28l0,0v2.57v1.28h-1.28h-2.57h-1.28v-1.28
			V124.41"/>
		<path d="M15.22,129.54c0-0.71,0.58-1.28,1.28-1.28l0,0h2.57h1.28v1.28v2.57v1.28h-1.28h-2.57c-0.71,0-1.28-0.58-1.28-1.28l0,0
			V129.54"/>
		<path d="M20.36,129.54v-1.28h1.28h2.57h1.28v1.28v2.57v1.28h-1.28h-2.57h-1.28v-1.28V129.54"/>
		<path d="M35.78,129.54c0-0.71,0.58-1.28,1.28-1.28l0,0h2.57c0.71,0,1.28,0.58,1.28,1.28l0,0v2.57v1.28h-1.28h-2.57h-1.28v-1.28
			V129.54"/>
		<path d="M51.19,133.4H49.9c0.71,0,1.28,0.58,1.28,1.28l0,0V133.4"/>
		<path d="M46.05,129.54c0-0.71,0.58-1.28,1.28-1.28l0,0h2.57h1.28v1.28v2.57v1.28H49.9h-2.57c-0.71,0-1.28-0.58-1.28-1.28l0,0
			V129.54"/>
		<path d="M56.33,133.4v-1.28c0,0.71,0.58,1.28,1.28,1.28l0,0H56.33"/>
		<path d="M51.19,129.54v-1.28h1.28h2.57c0.71,0,1.28,0.58,1.28,1.28l0,0v2.57v1.28h-1.28h-2.57h-1.28v-1.28V129.54"/>
		<path d="M61.47,133.4h-1.28c0.71,0,1.28-0.58,1.28-1.28l0,0V133.4"/>
		<path d="M61.47,129.54v-1.28h1.28h2.57h1.28v1.28v2.57v1.28h-1.28h-2.57h-1.28v-1.28V129.54"/>
		<path d="M71.74,128.26h1.28c-0.71,0-1.28,0.58-1.28,1.28l0,0V128.26"/>
		<path d="M66.6,129.54v-1.28h1.28h2.57h1.28v1.28v2.57v1.28h-1.28h-2.57H66.6v-1.28V129.54"/>
		<path d="M76.88,129.54c0-0.71,0.58-1.28,1.28-1.28l0,0h2.57c0.71,0,1.28,0.58,1.28,1.28l0,0v2.57c0,0.71-0.58,1.28-1.28,1.28l0,0
			h-2.57c-0.71,0-1.28-0.58-1.28-1.28l0,0V129.54"/>
		<path d="M102.57,129.54c0-0.71,0.58-1.28,1.28-1.28l0,0h2.57c0.71,0,1.28,0.58,1.28,1.28l0,0v2.57c0,0.71-0.58,1.28-1.28,1.28l0,0
			h-2.57c-0.71,0-1.28-0.58-1.28-1.28l0,0V129.54"/>
		<path d="M117.98,128.26h1.28c-0.71,0-1.28,0.58-1.28,1.28l0,0V128.26"/>
		<path d="M117.98,133.4v-1.28c0,0.71,0.58,1.28,1.28,1.28l0,0H117.98"/>
		<path d="M112.84,133.4h-1.28c0.71,0,1.28-0.58,1.28-1.28l0,0V133.4"/>
		<path d="M112.84,129.54v-1.28h1.28h2.57h1.28v1.28v2.57v1.28h-1.28h-2.57h-1.28v-1.28V129.54"/>
		<path d="M133.4,128.26h-1.28c0.71,0,1.28,0.58,1.28,1.28l0,0V128.26"/>
		<path d="M133.4,129.54v-1.28h1.28h2.57h1.28v1.28v2.57v1.28h-1.28h-2.57h-1.28v-1.28V129.54"/>
		<path d="M138.53,129.54v-1.28h1.28h2.57h1.28v1.28v2.57v1.28h-1.28h-2.57h-1.28v-1.28V129.54"/>
		<path d="M143.67,128.26v-1.28c0,0.71,0.58,1.28,1.28,1.28l0,0H143.67"/>
		<path d="M143.67,129.54v-1.28h1.28h2.57h1.28v1.28v2.57v1.28h-1.28h-2.57h-1.28v-1.28V129.54"/>
		<path d="M148.81,129.54v-1.28h1.28h2.57h1.28v1.28v2.57v1.28h-1.28h-2.57h-1.28v-1.28V129.54"/>
		<path d="M153.95,129.54v-1.28h1.28h2.57h1.28v1.28v2.57v1.28h-1.28h-2.57h-1.28v-1.28V129.54"/>
		<path d="M159.09,133.4h1.28c-0.71,0-1.28,0.58-1.28,1.28l0,0V133.4"/>
		<path d="M159.09,129.54v-1.28h1.28h2.57c0.71,0,1.28,0.58,1.28,1.28l0,0v2.57c0,0.71-0.58,1.28-1.28,1.28l0,0h-2.57h-1.28v-1.28
			V129.54"/>
		<path d="M179.64,129.54v-1.28h1.28h2.57h1.28v1.28v2.57v1.28h-1.28h-2.57h-1.28v-1.28V129.54"/>
		<path d="M20.36,133.4h-1.28c0.71,0,1.28,0.58,1.28,1.28l0,0V133.4"/>
		<path d="M20.36,134.68v-1.28h1.28h2.57h1.28v1.28v2.57c0,0.71-0.58,1.28-1.28,1.28l0,0h-2.57c-0.71,0-1.28-0.58-1.28-1.28l0,0
			V134.68"/>
		<path d="M35.78,134.68v-1.28h1.28h2.57h1.28v1.28v2.57c0,0.71-0.58,1.28-1.28,1.28l0,0h-2.57c-0.71,0-1.28-0.58-1.28-1.28l0,0
			V134.68"/>
		<path d="M51.19,133.4H49.9c0.71,0,1.28,0.58,1.28,1.28l0,0V133.4"/>
		<path d="M51.19,134.68v-1.28h1.28h2.57h1.28v1.28v2.57v1.28h-1.28h-2.57c-0.71,0-1.28-0.58-1.28-1.28l0,0V134.68"/>
		<path d="M56.33,133.4v-1.28c0,0.71,0.58,1.28,1.28,1.28l0,0H56.33"/>
		<path d="M61.47,133.4v-1.28c0,0.71-0.58,1.28-1.28,1.28l0,0H61.47"/>
		<path d="M61.47,138.53h-1.28c0.71,0,1.28,0.58,1.28,1.28l0,0V138.53"/>
		<path d="M56.33,134.68v-1.28h1.28h2.57h1.28v1.28v2.57v1.28h-1.28h-2.57h-1.28v-1.28V134.68"/>
		<path d="M61.47,134.68v-1.28h1.28h2.57h1.28v1.28v2.57v1.28h-1.28h-2.57h-1.28v-1.28V134.68"/>
		<path d="M66.6,138.53h1.28c-0.71,0-1.28,0.58-1.28,1.28l0,0V138.53"/>
		<path d="M66.6,134.68v-1.28h1.28h2.57h1.28v1.28v2.57c0,0.71-0.58,1.28-1.28,1.28l0,0h-2.57H66.6v-1.28V134.68"/>
		<path d="M87.16,134.68c0-0.71,0.58-1.28,1.28-1.28l0,0h2.57c0.71,0,1.28,0.58,1.28,1.28l0,0v2.57v1.28h-1.28h-2.57h-1.28v-1.28
			V134.68"/>
		<path d="M97.43,134.68c0-0.71,0.58-1.28,1.28-1.28l0,0h2.57c0.71,0,1.28,0.58,1.28,1.28l0,0v2.57v1.28h-1.28h-2.57h-1.28v-1.28
			V134.68"/>
		<path d="M112.84,133.4v-1.28c0,0.71-0.58,1.28-1.28,1.28l0,0H112.84"/>
		<path d="M107.71,134.68c0-0.71,0.58-1.28,1.28-1.28l0,0h2.57h1.28v1.28v2.57v1.28h-1.28h-2.57c-0.71,0-1.28-0.58-1.28-1.28l0,0
			V134.68"/>
		<path d="M112.84,134.68v-1.28h1.28h2.57h1.28v1.28v2.57v1.28h-1.28h-2.57h-1.28v-1.28V134.68"/>
		<path d="M117.98,133.4v-1.28c0,0.71,0.58,1.28,1.28,1.28l0,0H117.98"/>
		<path d="M123.12,138.53h-1.28c0.71,0,1.28,0.58,1.28,1.28l0,0V138.53"/>
		<path d="M117.98,134.68v-1.28h1.28h2.57h1.28v1.28v2.57v1.28h-1.28h-2.57h-1.28v-1.28V134.68"/>
		<path d="M123.12,134.68v-1.28h1.28h2.57c0.71,0,1.28,0.58,1.28,1.28l0,0v2.57v1.28h-1.28h-2.57h-1.28v-1.28V134.68"/>
		<path d="M133.4,134.68v-1.28h1.28h2.57h1.28v1.28v2.57v1.28h-1.28h-2.57h-1.28v-1.28V134.68"/>
		<path d="M138.53,134.68v-1.28h1.28h2.57h1.28v1.28v2.57v1.28h-1.28h-2.57h-1.28v-1.28V134.68"/>
		<path d="M143.67,134.68v-1.28h1.28h2.57h1.28v1.28v2.57v1.28h-1.28h-2.57h-1.28v-1.28V134.68"/>
		<path d="M148.81,134.68v-1.28h1.28h2.57h1.28v1.28v2.57v1.28h-1.28h-2.57h-1.28v-1.28V134.68"/>
		<path d="M159.09,133.4h1.28c-0.71,0-1.28,0.58-1.28,1.28l0,0V133.4"/>
		<path d="M159.09,138.53v-1.28c0,0.71,0.58,1.28,1.28,1.28l0,0H159.09"/>
		<path d="M153.95,134.68v-1.28h1.28h2.57h1.28v1.28v2.57v1.28h-1.28h-2.57h-1.28v-1.28V134.68"/>
		<path d="M164.22,134.68c0-0.71,0.58-1.28,1.28-1.28l0,0h2.57c0.71,0,1.28,0.58,1.28,1.28l0,0v2.57c0,0.71-0.58,1.28-1.28,1.28l0,0
			h-2.57c-0.71,0-1.28-0.58-1.28-1.28l0,0V134.68"/>
		<path d="M179.64,133.4v-1.28c0,0.71-0.58,1.28-1.28,1.28l0,0H179.64"/>
		<path d="M179.64,138.53h-1.28c0.71,0,1.28,0.58,1.28,1.28l0,0V138.53"/>
		<path d="M174.5,134.68c0-0.71,0.58-1.28,1.28-1.28l0,0h2.57h1.28v1.28v2.57v1.28h-1.28h-2.57c-0.71,0-1.28-0.58-1.28-1.28l0,0
			V134.68"/>
		<path d="M179.64,134.68v-1.28h1.28h2.57h1.28v1.28v2.57v1.28h-1.28h-2.57h-1.28v-1.28V134.68"/>
		<path d="M15.22,139.82c0-0.71,0.58-1.28,1.28-1.28l0,0h2.57c0.71,0,1.28,0.58,1.28,1.28l0,0v2.57c0,0.71-0.58,1.28-1.28,1.28l0,0
			h-2.57c-0.71,0-1.28-0.58-1.28-1.28l0,0V139.82"/>
		<path d="M30.64,139.82c0-0.71,0.58-1.28,1.28-1.28l0,0h2.57c0.71,0,1.28,0.58,1.28,1.28l0,0v2.57c0,0.71-0.58,1.28-1.28,1.28l0,0
			h-2.57c-0.71,0-1.28-0.58-1.28-1.28l0,0V139.82"/>
		<path d="M40.91,139.82c0-0.71,0.58-1.28,1.28-1.28l0,0h2.57h1.28v1.28v2.57v1.28h-1.28H42.2c-0.71,0-1.28-0.58-1.28-1.28l0,0
			V139.82"/>
		<path d="M46.05,139.82v-1.28h1.28h2.57c0.71,0,1.28,0.58,1.28,1.28l0,0v2.57c0,0.71-0.58,1.28-1.28,1.28l0,0h-2.57h-1.28v-1.28
			V139.82"/>
		<path d="M61.47,138.53h-1.28c0.71,0,1.28,0.58,1.28,1.28l0,0V138.53"/>
		<path d="M66.6,138.53h1.28c-0.71,0-1.28,0.58-1.28,1.28l0,0V138.53"/>
		<path d="M66.6,143.67v-1.28c0,0.71,0.58,1.28,1.28,1.28l0,0H66.6"/>
		<path d="M61.47,143.67h-1.28c0.71,0,1.28-0.58,1.28-1.28l0,0V143.67"/>
		<path d="M61.47,139.82v-1.28h1.28h2.57h1.28v1.28v2.57v1.28h-1.28h-2.57h-1.28v-1.28V139.82"/>
		<path d="M76.88,139.82c0-0.71,0.58-1.28,1.28-1.28l0,0h2.57c0.71,0,1.28,0.58,1.28,1.28l0,0v2.57c0,0.71-0.58,1.28-1.28,1.28l0,0
			h-2.57c-0.71,0-1.28-0.58-1.28-1.28l0,0V139.82"/>
		<path d="M87.16,139.82v-1.28h1.28h2.57h1.28v1.28v2.57c0,0.71-0.58,1.28-1.28,1.28l0,0h-2.57c-0.71,0-1.28-0.58-1.28-1.28l0,0
			V139.82"/>
		<path d="M97.43,139.82v-1.28h1.28h2.57h1.28v1.28v2.57c0,0.71-0.58,1.28-1.28,1.28l0,0h-2.57c-0.71,0-1.28-0.58-1.28-1.28l0,0
			V139.82"/>
		<path d="M123.12,138.53h-1.28c0.71,0,1.28,0.58,1.28,1.28l0,0V138.53"/>
		<path d="M123.12,143.67h-1.28c0.71,0,1.28-0.58,1.28-1.28l0,0V143.67"/>
		<path d="M123.12,139.82v-1.28h1.28h2.57h1.28v1.28v2.57v1.28h-1.28h-2.57h-1.28v-1.28V139.82"/>
		<path d="M133.4,139.82v-1.28h1.28h2.57h1.28v1.28v2.57v1.28h-1.28h-2.57h-1.28v-1.28V139.82"/>
		<path d="M138.53,139.82v-1.28h1.28h2.57h1.28v1.28v2.57v1.28h-1.28h-2.57h-1.28v-1.28V139.82"/>
		<path d="M143.67,143.67h1.28c-0.71,0-1.28,0.58-1.28,1.28l0,0V143.67"/>
		<path d="M143.67,139.82v-1.28h1.28h2.57h1.28v1.28v2.57v1.28h-1.28h-2.57h-1.28v-1.28V139.82"/>
		<path d="M148.81,139.82v-1.28h1.28h2.57h1.28v1.28v2.57v1.28h-1.28h-2.57h-1.28v-1.28V139.82"/>
		<path d="M159.09,143.67h-1.28c0.71,0,1.28,0.58,1.28,1.28l0,0V143.67"/>
		<path d="M153.95,139.82v-1.28h1.28h2.57h1.28v1.28v2.57v1.28h-1.28h-2.57h-1.28v-1.28V139.82"/>
		<path d="M159.09,138.53v-1.28c0,0.71,0.58,1.28,1.28,1.28l0,0H159.09"/>
		<path d="M159.09,139.82v-1.28h1.28h2.57c0.71,0,1.28,0.58,1.28,1.28l0,0v2.57v1.28h-1.28h-2.57h-1.28v-1.28V139.82"/>
		<path d="M179.64,139.82v-1.28h1.28h2.57h1.28v1.28v2.57v1.28h-1.28h-2.57h-1.28v-1.28V139.82"/>
		<path d="M61.47,143.67v-1.28c0,0.71-0.58,1.28-1.28,1.28l0,0H61.47"/>
		<path d="M61.47,148.81h-1.28c0.71,0,1.28,0.58,1.28,1.28l0,0V148.81"/>
		<path d="M56.33,144.96c0-0.71,0.58-1.28,1.28-1.28l0,0h2.57h1.28v1.28v2.57v1.28h-1.28h-2.57c-0.71,0-1.28-0.58-1.28-1.28l0,0
			V144.96"/>
		<path d="M61.47,144.96v-1.28h1.28h2.57h1.28v1.28v2.57v1.28h-1.28h-2.57h-1.28v-1.28V144.96"/>
		<path d="M66.6,143.67v-1.28c0,0.71,0.58,1.28,1.28,1.28l0,0H66.6"/>
		<path d="M66.6,148.81h1.28c-0.71,0-1.28,0.58-1.28,1.28l0,0V148.81"/>
		<path d="M66.6,144.96v-1.28h1.28h2.57c0.71,0,1.28,0.58,1.28,1.28l0,0v2.57c0,0.71-0.58,1.28-1.28,1.28l0,0h-2.57H66.6v-1.28
			V144.96"/>
		<path d="M82.02,144.96c0-0.71,0.58-1.28,1.28-1.28l0,0h2.57c0.71,0,1.28,0.58,1.28,1.28l0,0v2.57c0,0.71-0.58,1.28-1.28,1.28l0,0
			H83.3c-0.71,0-1.28-0.58-1.28-1.28l0,0V144.96"/>
		<path d="M97.43,148.81v-1.28c0,0.71,0.58,1.28,1.28,1.28l0,0H97.43"/>
		<path d="M92.29,148.81h-1.28c0.71,0,1.28-0.58,1.28-1.28l0,0V148.81"/>
		<path d="M92.29,144.96c0-0.71,0.58-1.28,1.28-1.28l0,0h2.57c0.71,0,1.28,0.58,1.28,1.28l0,0v2.57v1.28h-1.28h-2.57h-1.28v-1.28
			V144.96"/>
		<path d="M102.57,148.81h-1.28c0.71,0,1.28-0.58,1.28-1.28l0,0V148.81"/>
		<path d="M102.57,144.96c0-0.71,0.58-1.28,1.28-1.28l0,0h2.57h1.28v1.28v2.57v1.28h-1.28h-2.57h-1.28v-1.28V144.96"/>
		<path d="M107.71,148.81h1.28c-0.71,0-1.28,0.58-1.28,1.28l0,0V148.81"/>
		<path d="M107.71,144.96v-1.28h1.28h2.57h1.28v1.28v2.57v1.28h-1.28h-2.57h-1.28v-1.28V144.96"/>
		<path d="M112.84,144.96v-1.28h1.28h2.57h1.28v1.28v2.57v1.28h-1.28h-2.57h-1.28v-1.28V144.96"/>
		<path d="M123.12,143.67v-1.28c0,0.71-0.58,1.28-1.28,1.28l0,0H123.12"/>
		<path d="M117.98,144.96v-1.28h1.28h2.57h1.28v1.28v2.57v1.28h-1.28h-2.57h-1.28v-1.28V144.96"/>
		<path d="M123.12,144.96v-1.28h1.28h2.57h1.28v1.28v2.57c0,0.71-0.58,1.28-1.28,1.28l0,0h-2.57h-1.28v-1.28V144.96"/>
		<path d="M133.4,148.81h-1.28c0.71,0,1.28-0.58,1.28-1.28l0,0V148.81"/>
		<path d="M133.4,144.96v-1.28h1.28h2.57h1.28v1.28v2.57v1.28h-1.28h-2.57h-1.28v-1.28V144.96"/>
		<path d="M143.67,143.67h1.28c-0.71,0-1.28,0.58-1.28,1.28l0,0V143.67"/>
		<path d="M138.53,144.96v-1.28h1.28h2.57h1.28v1.28v2.57v1.28h-1.28h-2.57h-1.28v-1.28V144.96"/>
		<path d="M159.09,143.67h-1.28c0.71,0,1.28,0.58,1.28,1.28l0,0V143.67"/>
		<path d="M159.09,144.96v-1.28h1.28h2.57h1.28v1.28v2.57v1.28h-1.28h-2.57h-1.28v-1.28V144.96"/>
		<path d="M174.5,148.81h-1.28c0.71,0,1.28,0.58,1.28,1.28l0,0V148.81"/>
		<path d="M169.36,144.96c0-0.71,0.58-1.28,1.28-1.28l0,0h2.57h1.28v1.28v2.57v1.28h-1.28h-2.57c-0.71,0-1.28-0.58-1.28-1.28l0,0
			V144.96"/>
		<path d="M179.64,143.67v-1.28c0,0.71-0.58,1.28-1.28,1.28l0,0H179.64"/>
		<path d="M174.5,144.96v-1.28h1.28h2.57h1.28v1.28v2.57v1.28h-1.28h-2.57h-1.28v-1.28V144.96"/>
		<path d="M179.64,144.96v-1.28h1.28h2.57h1.28v1.28v2.57c0,0.71-0.58,1.28-1.28,1.28l0,0h-2.57h-1.28v-1.28V144.96"/>
		<path d="M61.47,148.81h-1.28c0.71,0,1.28,0.58,1.28,1.28l0,0V148.81"/>
		<path d="M66.6,148.81h1.28c-0.71,0-1.28,0.58-1.28,1.28l0,0V148.81"/>
		<path d="M66.6,153.95v-1.28c0,0.71,0.58,1.28,1.28,1.28l0,0H66.6"/>
		<path d="M61.47,150.1v-1.28h1.28h2.57h1.28v1.28v2.57v1.28h-1.28h-2.57h-1.28v-1.28V150.1"/>
		<path d="M76.88,153.95v-1.28c0,0.71,0.58,1.28,1.28,1.28l0,0H76.88"/>
		<path d="M71.74,153.95h-1.28c0.71,0,1.28-0.58,1.28-1.28l0,0V153.95"/>
		<path d="M71.74,150.1c0-0.71,0.58-1.28,1.28-1.28l0,0h2.57c0.71,0,1.28,0.58,1.28,1.28l0,0v2.57v1.28h-1.28h-2.57h-1.28v-1.28
			V150.1"/>
		<path d="M92.29,148.81v-1.28c0,0.71-0.58,1.28-1.28,1.28l0,0H92.29"/>
		<path d="M87.16,150.1c0-0.71,0.58-1.28,1.28-1.28l0,0h2.57h1.28v1.28v2.57v1.28h-1.28h-2.57h-1.28v-1.28V150.1"/>
		<path d="M92.29,150.1v-1.28h1.28h2.57h1.28v1.28v2.57v1.28h-1.28h-2.57h-1.28v-1.28V150.1"/>
		<path d="M97.43,148.81v-1.28c0,0.71,0.58,1.28,1.28,1.28l0,0H97.43"/>
		<path d="M102.57,148.81v-1.28c0,0.71-0.58,1.28-1.28,1.28l0,0H102.57"/>
		<path d="M102.57,153.95h-1.28c0.71,0,1.28,0.58,1.28,1.28l0,0V153.95"/>
		<path d="M97.43,153.95h1.28c-0.71,0-1.28,0.58-1.28,1.28l0,0V153.95"/>
		<path d="M97.43,150.1v-1.28h1.28h2.57h1.28v1.28v2.57v1.28h-1.28h-2.57h-1.28v-1.28V150.1"/>
		<path d="M107.71,148.81h1.28c-0.71,0-1.28,0.58-1.28,1.28l0,0V148.81"/>
		<path d="M102.57,150.1v-1.28h1.28h2.57h1.28v1.28v2.57v1.28h-1.28h-2.57h-1.28v-1.28V150.1"/>
		<path d="M133.4,148.81v-1.28c0,0.71-0.58,1.28-1.28,1.28l0,0H133.4"/>
		<path d="M128.26,153.95h-1.28c0.71,0,1.28-0.58,1.28-1.28l0,0V153.95"/>
		<path d="M128.26,150.1c0-0.71,0.58-1.28,1.28-1.28l0,0h2.57h1.28v1.28v2.57v1.28h-1.28h-2.57h-1.28v-1.28V150.1"/>
		<path d="M138.53,153.95h-1.28c0.71,0,1.28,0.58,1.28,1.28l0,0V153.95"/>
		<path d="M133.4,153.95h1.28c-0.71,0-1.28,0.58-1.28,1.28l0,0V153.95"/>
		<path d="M133.4,150.1v-1.28h1.28h2.57h1.28v1.28v2.57v1.28h-1.28h-2.57h-1.28v-1.28V150.1"/>
		<path d="M138.53,150.1v-1.28h1.28h2.57h1.28v1.28v2.57v1.28h-1.28h-2.57h-1.28v-1.28V150.1"/>
		<path d="M148.81,150.1c0-0.71,0.58-1.28,1.28-1.28l0,0h2.57c0.71,0,1.28,0.58,1.28,1.28l0,0v2.57c0,0.71-0.58,1.28-1.28,1.28l0,0
			h-2.57c-0.71,0-1.28-0.58-1.28-1.28l0,0V150.1"/>
		<path d="M164.22,153.95v-1.28c0,0.71,0.58,1.28,1.28,1.28l0,0H164.22"/>
		<path d="M159.09,150.1v-1.28h1.28h2.57h1.28v1.28v2.57v1.28h-1.28h-2.57h-1.28v-1.28V150.1"/>
		<path d="M174.5,148.81h-1.28c0.71,0,1.28,0.58,1.28,1.28l0,0V148.81"/>
		<path d="M179.64,148.81h1.28c-0.71,0-1.28,0.58-1.28,1.28l0,0V148.81"/>
		<path d="M174.5,150.1v-1.28h1.28h2.57h1.28v1.28v2.57c0,0.71-0.58,1.28-1.28,1.28l0,0h-2.57c-0.71,0-1.28-0.58-1.28-1.28l0,0
			V150.1"/>
		<path d="M66.6,159.09h-1.28c0.71,0,1.28,0.58,1.28,1.28l0,0V159.09"/>
		<path d="M61.47,155.23v-1.28h1.28h2.57h1.28v1.28v2.57v1.28h-1.28h-2.57c-0.71,0-1.28-0.58-1.28-1.28l0,0V155.23"/>
		<path d="M66.6,153.95v-1.28c0,0.71,0.58,1.28,1.28,1.28l0,0H66.6"/>
		<path d="M71.74,153.95v-1.28c0,0.71-0.58,1.28-1.28,1.28l0,0H71.74"/>
		<path d="M66.6,155.23v-1.28h1.28h2.57h1.28v1.28v2.57v1.28h-1.28h-2.57H66.6v-1.28V155.23"/>
		<path d="M71.74,159.09h1.28c-0.71,0-1.28,0.58-1.28,1.28l0,0V159.09"/>
		<path d="M71.74,155.23v-1.28h1.28h2.57h1.28v1.28v2.57v1.28h-1.28h-2.57h-1.28v-1.28V155.23"/>
		<path d="M76.88,153.95v-1.28c0,0.71,0.58,1.28,1.28,1.28l0,0H76.88"/>
		<path d="M76.88,155.23v-1.28h1.28h2.57c0.71,0,1.28,0.58,1.28,1.28l0,0v2.57c0,0.71-0.58,1.28-1.28,1.28l0,0h-2.57h-1.28v-1.28
			V155.23"/>
		<path d="M87.16,155.23v-1.28h1.28h2.57h1.28v1.28v2.57v1.28h-1.28h-2.57c-0.71,0-1.28-0.58-1.28-1.28l0,0V155.23"/>
		<path d="M97.43,153.95h1.28c-0.71,0-1.28,0.58-1.28,1.28l0,0V153.95"/>
		<path d="M92.29,155.23v-1.28h1.28h2.57h1.28v1.28v2.57c0,0.71-0.58,1.28-1.28,1.28l0,0h-2.57h-1.28v-1.28V155.23"/>
		<path d="M102.57,153.95h-1.28c0.71,0,1.28,0.58,1.28,1.28l0,0V153.95"/>
		<path d="M102.57,155.23v-1.28h1.28h2.57h1.28v1.28v2.57c0,0.71-0.58,1.28-1.28,1.28l0,0h-2.57c-0.71,0-1.28-0.58-1.28-1.28l0,0
			V155.23"/>
		<path d="M117.98,155.23c0-0.71,0.58-1.28,1.28-1.28l0,0h2.57h1.28v1.28v2.57v1.28h-1.28h-2.57c-0.71,0-1.28-0.58-1.28-1.28l0,0
			V155.23"/>
		<path d="M128.26,153.95v-1.28c0,0.71-0.58,1.28-1.28,1.28l0,0H128.26"/>
		<path d="M123.12,155.23v-1.28h1.28h2.57h1.28v1.28v2.57v1.28h-1.28h-2.57h-1.28v-1.28V155.23"/>
		<path d="M133.4,153.95h1.28c-0.71,0-1.28,0.58-1.28,1.28l0,0V153.95"/>
		<path d="M128.26,155.23v-1.28h1.28h2.57h1.28v1.28v2.57c0,0.71-0.58,1.28-1.28,1.28l0,0h-2.57h-1.28v-1.28V155.23"/>
		<path d="M138.53,153.95h-1.28c0.71,0,1.28,0.58,1.28,1.28l0,0V153.95"/>
		<path d="M143.67,159.09v-1.28c0,0.71,0.58,1.28,1.28,1.28l0,0H143.67"/>
		<path d="M138.53,155.23v-1.28h1.28h2.57h1.28v1.28v2.57v1.28h-1.28h-2.57h-1.28v-1.28V155.23"/>
		<path d="M159.09,159.09h-1.28c0.71,0,1.28-0.58,1.28-1.28l0,0V159.09"/>
		<path d="M159.09,155.23v-1.28h1.28h2.57h1.28v1.28v2.57v1.28h-1.28h-2.57h-1.28v-1.28V155.23"/>
		<path d="M164.22,153.95v-1.28c0,0.71,0.58,1.28,1.28,1.28l0,0H164.22"/>
		<path d="M164.22,159.09h1.28c-0.71,0-1.28,0.58-1.28,1.28l0,0V159.09"/>
		<path d="M164.22,155.23v-1.28h1.28h2.57c0.71,0,1.28,0.58,1.28,1.28l0,0v2.57c0,0.71-0.58,1.28-1.28,1.28l0,0h-2.57h-1.28v-1.28
			V155.23"/>
		<path d="M179.64,155.23c0-0.71,0.58-1.28,1.28-1.28l0,0h2.57c0.71,0,1.28,0.58,1.28,1.28l0,0v2.57c0,0.71-0.58,1.28-1.28,1.28l0,0
			h-2.57c-0.71,0-1.28-0.58-1.28-1.28l0,0V155.23"/>
		<path d="M66.6,159.09h-1.28c0.71,0,1.28,0.58,1.28,1.28l0,0V159.09"/>
		<path d="M71.74,159.09h1.28c-0.71,0-1.28,0.58-1.28,1.28l0,0V159.09"/>
		<path d="M66.6,164.22h-1.28c0.71,0,1.28-0.58,1.28-1.28l0,0V164.22"/>
		<path d="M66.6,160.37v-1.28h1.28h2.57h1.28v1.28v2.57v1.28h-1.28h-2.57H66.6v-1.28V160.37"/>
		<path d="M87.16,164.22v-1.28c0,0.71,0.58,1.28,1.28,1.28l0,0H87.16"/>
		<path d="M82.02,160.37c0-0.71,0.58-1.28,1.28-1.28l0,0h2.57c0.71,0,1.28,0.58,1.28,1.28l0,0v2.57v1.28h-1.28H83.3h-1.28v-1.28
			V160.37"/>
		<path d="M97.43,160.37c0-0.71,0.58-1.28,1.28-1.28l0,0h2.57c0.71,0,1.28,0.58,1.28,1.28l0,0v2.57c0,0.71-0.58,1.28-1.28,1.28l0,0
			h-2.57c-0.71,0-1.28-0.58-1.28-1.28l0,0V160.37"/>
		<path d="M107.71,164.22h-1.28c0.71,0,1.28-0.58,1.28-1.28l0,0V164.22"/>
		<path d="M107.71,160.37c0-0.71,0.58-1.28,1.28-1.28l0,0h2.57h1.28v1.28v2.57v1.28h-1.28h-2.57h-1.28v-1.28V160.37"/>
		<path d="M112.84,164.22h1.28c-0.71,0-1.28,0.58-1.28,1.28l0,0V164.22"/>
		<path d="M112.84,160.37v-1.28h1.28h2.57c0.71,0,1.28,0.58,1.28,1.28l0,0v2.57c0,0.71-0.58,1.28-1.28,1.28l0,0h-2.57h-1.28v-1.28
			V160.37"/>
		<path d="M138.53,160.37v-1.28h1.28h2.57h1.28v1.28v2.57v1.28h-1.28h-2.57c-0.71,0-1.28-0.58-1.28-1.28l0,0V160.37"/>
		<path d="M143.67,159.09v-1.28c0,0.71,0.58,1.28,1.28,1.28l0,0H143.67"/>
		<path d="M148.81,164.22h-1.28c0.71,0,1.28,0.58,1.28,1.28l0,0V164.22"/>
		<path d="M143.67,160.37v-1.28h1.28h2.57h1.28v1.28v2.57v1.28h-1.28h-2.57h-1.28v-1.28V160.37"/>
		<path d="M148.81,160.37v-1.28h1.28h2.57h1.28v1.28v2.57v1.28h-1.28h-2.57h-1.28v-1.28V160.37"/>
		<path d="M159.09,159.09v-1.28c0,0.71-0.58,1.28-1.28,1.28l0,0H159.09"/>
		<path d="M159.09,164.22h-1.28c0.71,0,1.28,0.58,1.28,1.28l0,0V164.22"/>
		<path d="M153.95,164.22h1.28c-0.71,0-1.28,0.58-1.28,1.28l0,0V164.22"/>
		<path d="M153.95,160.37v-1.28h1.28h2.57h1.28v1.28v2.57v1.28h-1.28h-2.57h-1.28v-1.28V160.37"/>
		<path d="M164.22,159.09h1.28c-0.71,0-1.28,0.58-1.28,1.28l0,0V159.09"/>
		<path d="M159.09,160.37v-1.28h1.28h2.57h1.28v1.28v2.57v1.28h-1.28h-2.57h-1.28v-1.28V160.37"/>
		<path d="M61.47,169.36h-1.28c0.71,0,1.28,0.58,1.28,1.28l0,0V169.36"/>
		<path d="M56.33,165.51c0-0.71,0.58-1.28,1.28-1.28l0,0h2.57h1.28v1.28v2.57v1.28h-1.28h-2.57c-0.71,0-1.28-0.58-1.28-1.28l0,0
			V165.51"/>
		<path d="M66.6,164.22v-1.28c0,0.71-0.58,1.28-1.28,1.28l0,0H66.6"/>
		<path d="M61.47,165.51v-1.28h1.28h2.57h1.28v1.28v2.57v1.28h-1.28h-2.57h-1.28v-1.28V165.51"/>
		<path d="M71.74,169.36v-1.28c0,0.71,0.58,1.28,1.28,1.28l0,0H71.74"/>
		<path d="M66.6,165.51v-1.28h1.28h2.57h1.28v1.28v2.57v1.28h-1.28h-2.57H66.6v-1.28V165.51"/>
		<path d="M87.16,169.36h-1.28c0.71,0,1.28,0.58,1.28,1.28l0,0V169.36"/>
		<path d="M82.02,165.51v-1.28h1.28h2.57h1.28v1.28v2.57v1.28h-1.28H83.3c-0.71,0-1.28-0.58-1.28-1.28l0,0V165.51"/>
		<path d="M87.16,164.22v-1.28c0,0.71,0.58,1.28,1.28,1.28l0,0H87.16"/>
		<path d="M87.16,165.51v-1.28h1.28h2.57c0.71,0,1.28,0.58,1.28,1.28l0,0v2.57v1.28h-1.28h-2.57h-1.28v-1.28V165.51"/>
		<path d="M107.71,164.22v-1.28c0,0.71-0.58,1.28-1.28,1.28l0,0H107.71"/>
		<path d="M107.71,169.36h-1.28c0.71,0,1.28,0.58,1.28,1.28l0,0V169.36"/>
		<path d="M102.57,165.51c0-0.71,0.58-1.28,1.28-1.28l0,0h2.57h1.28v1.28v2.57v1.28h-1.28h-2.57c-0.71,0-1.28-0.58-1.28-1.28l0,0
			V165.51"/>
		<path d="M112.84,164.22h1.28c-0.71,0-1.28,0.58-1.28,1.28l0,0V164.22"/>
		<path d="M112.84,169.36v-1.28c0,0.71,0.58,1.28,1.28,1.28l0,0H112.84"/>
		<path d="M107.71,165.51v-1.28h1.28h2.57h1.28v1.28v2.57v1.28h-1.28h-2.57h-1.28v-1.28V165.51"/>
		<path d="M123.12,169.36v-1.28c0,0.71,0.58,1.28,1.28,1.28l0,0H123.12"/>
		<path d="M117.98,169.36h-1.28c0.71,0,1.28-0.58,1.28-1.28l0,0V169.36"/>
		<path d="M117.98,165.51c0-0.71,0.58-1.28,1.28-1.28l0,0h2.57c0.71,0,1.28,0.58,1.28,1.28l0,0v2.57v1.28h-1.28h-2.57h-1.28v-1.28
			V165.51"/>
		<path d="M128.26,165.51c0-0.71,0.58-1.28,1.28-1.28l0,0h2.57c0.71,0,1.28,0.58,1.28,1.28l0,0v2.57c0,0.71-0.58,1.28-1.28,1.28l0,0
			h-2.57c-0.71,0-1.28-0.58-1.28-1.28l0,0V165.51"/>
		<path d="M148.81,164.22h-1.28c0.71,0,1.28,0.58,1.28,1.28l0,0V164.22"/>
		<path d="M153.95,164.22h1.28c-0.71,0-1.28,0.58-1.28,1.28l0,0V164.22"/>
		<path d="M148.81,165.51v-1.28h1.28h2.57h1.28v1.28v2.57c0,0.71-0.58,1.28-1.28,1.28l0,0h-2.57c-0.71,0-1.28-0.58-1.28-1.28l0,0
			V165.51"/>
		<path d="M159.09,164.22h-1.28c0.71,0,1.28,0.58,1.28,1.28l0,0V164.22"/>
		<path d="M164.22,169.36v-1.28c0,0.71,0.58,1.28,1.28,1.28l0,0H164.22"/>
		<path d="M159.09,169.36h-1.28c0.71,0,1.28-0.58,1.28-1.28l0,0V169.36"/>
		<path d="M159.09,165.51v-1.28h1.28h2.57h1.28v1.28v2.57v1.28h-1.28h-2.57h-1.28v-1.28V165.51"/>
		<path d="M179.64,165.51c0-0.71,0.58-1.28,1.28-1.28l0,0h2.57c0.71,0,1.28,0.58,1.28,1.28l0,0v2.57v1.28h-1.28h-2.57h-1.28v-1.28
			V165.51"/>
		<path d="M61.47,169.36h-1.28c0.71,0,1.28,0.58,1.28,1.28l0,0V169.36"/>
		<path d="M61.47,170.65v-1.28h1.28h2.57h1.28v1.28v2.57v1.28h-1.28h-2.57h-1.28v-1.28V170.65"/>
		<path d="M66.6,174.5h1.28c-0.71,0-1.28,0.58-1.28,1.28l0,0V174.5"/>
		<path d="M66.6,170.65v-1.28h1.28h2.57h1.28v1.28v2.57v1.28h-1.28h-2.57H66.6v-1.28V170.65"/>
		<path d="M71.74,169.36v-1.28c0,0.71,0.58,1.28,1.28,1.28l0,0H71.74"/>
		<path d="M71.74,170.65v-1.28h1.28h2.57c0.71,0,1.28,0.58,1.28,1.28l0,0v2.57c0,0.71-0.58,1.28-1.28,1.28h-2.57h-1.28v-1.28V170.65
			"/>
		<path d="M87.16,169.36h-1.28c0.71,0,1.28,0.58,1.28,1.28l0,0V169.36"/>
		<path d="M87.16,174.5h-1.28c0.71,0,1.28-0.58,1.28-1.28V174.5"/>
		<path d="M87.16,170.65v-1.28h1.28h2.57h1.28v1.28v2.57v1.28h-1.28h-2.57h-1.28v-1.28V170.65"/>
		<path d="M97.43,170.65c0-0.71,0.58-1.28,1.28-1.28l0,0h2.57c0.71,0,1.28,0.58,1.28,1.28l0,0v2.57v1.28h-1.28h-2.57h-1.28v-1.28
			V170.65"/>
		<path d="M107.71,169.36h-1.28c0.71,0,1.28,0.58,1.28,1.28l0,0V169.36"/>
		<path d="M107.71,170.65v-1.28h1.28h2.57h1.28v1.28v2.57v1.28h-1.28h-2.57h-1.28v-1.28V170.65"/>
		<path d="M112.84,169.36v-1.28c0,0.71,0.58,1.28,1.28,1.28l0,0H112.84"/>
		<path d="M117.98,169.36v-1.28c0,0.71-0.58,1.28-1.28,1.28l0,0H117.98"/>
		<path d="M117.98,174.5h-1.28c0.71,0,1.28,0.58,1.28,1.28l0,0V174.5"/>
		<path d="M112.84,174.5h1.28c-0.71,0-1.28,0.58-1.28,1.28l0,0V174.5"/>
		<path d="M112.84,170.65v-1.28h1.28h2.57h1.28v1.28v2.57v1.28h-1.28h-2.57h-1.28v-1.28V170.65"/>
		<path d="M117.98,170.65v-1.28h1.28h2.57h1.28v1.28v2.57v1.28h-1.28h-2.57h-1.28v-1.28V170.65"/>
		<path d="M123.12,169.36v-1.28c0,0.71,0.58,1.28,1.28,1.28l0,0H123.12"/>
		<path d="M123.12,174.5h1.28c-0.71,0-1.28,0.58-1.28,1.28l0,0V174.5"/>
		<path d="M123.12,170.65v-1.28h1.28h2.57c0.71,0,1.28,0.58,1.28,1.28l0,0v2.57c0,0.71-0.58,1.28-1.28,1.28h-2.57h-1.28v-1.28
			V170.65"/>
		<path d="M133.4,174.5h-1.28c0.71,0,1.28-0.58,1.28-1.28V174.5"/>
		<path d="M133.4,170.65c0-0.71,0.58-1.28,1.28-1.28l0,0h2.57h1.28v1.28v2.57v1.28h-1.28h-2.57h-1.28v-1.28V170.65"/>
		<path d="M138.53,170.65v-1.28h1.28h2.57h1.28v1.28v2.57v1.28h-1.28h-2.57h-1.28v-1.28V170.65"/>
		<path d="M143.67,170.65v-1.28h1.28h2.57c0.71,0,1.28,0.58,1.28,1.28l0,0v2.57v1.28h-1.28h-2.57h-1.28v-1.28V170.65"/>
		<path d="M159.09,169.36v-1.28c0,0.71-0.58,1.28-1.28,1.28l0,0H159.09"/>
		<path d="M153.95,170.65c0-0.71,0.58-1.28,1.28-1.28l0,0h2.57h1.28v1.28v2.57v1.28h-1.28h-2.57h-1.28v-1.28V170.65"/>
		<path d="M159.09,170.65v-1.28h1.28h2.57h1.28v1.28v2.57v1.28h-1.28h-2.57h-1.28v-1.28V170.65"/>
		<path d="M164.22,169.36v-1.28c0,0.71,0.58,1.28,1.28,1.28l0,0H164.22"/>
		<path d="M164.22,170.65v-1.28h1.28h2.57h1.28v1.28v2.57v1.28h-1.28h-2.57h-1.28v-1.28V170.65"/>
		<path d="M169.36,174.5h1.28c-0.71,0-1.28,0.58-1.28,1.28l0,0V174.5"/>
		<path d="M169.36,170.65v-1.28h1.28h2.57c0.71,0,1.28,0.58,1.28,1.28l0,0v2.57c0,0.71-0.58,1.28-1.28,1.28h-2.57h-1.28v-1.28
			V170.65"/>
		<path d="M179.64,170.65v-1.28h1.28h2.57h1.28v1.28v2.57c0,0.71-0.58,1.28-1.28,1.28h-2.57c-0.71,0-1.28-0.58-1.28-1.28V170.65"/>
		<path d="M66.6,174.5h1.28c-0.71,0-1.28,0.58-1.28,1.28l0,0V174.5"/>
		<path d="M61.47,175.78v-1.28h1.28h2.57h1.28v1.28v2.57c0,0.71-0.58,1.28-1.28,1.28h-2.57c-0.71,0-1.28-0.58-1.28-1.28V175.78"/>
		<path d="M76.88,175.78c0-0.71,0.58-1.28,1.28-1.28l0,0h2.57h1.28v1.28v2.57v1.28h-1.28h-2.57h-1.28v-1.28V175.78"/>
		<path d="M87.16,174.5v-1.28c0,0.71-0.58,1.28-1.28,1.28H87.16"/>
		<path d="M82.02,175.78v-1.28h1.28h2.57h1.28v1.28v2.57v1.28h-1.28H83.3h-1.28v-1.28V175.78"/>
		<path d="M87.16,179.64h1.28c-0.71,0-1.28,0.58-1.28,1.28l0,0V179.64"/>
		<path d="M87.16,175.78v-1.28h1.28h2.57h1.28v1.28v2.57c0,0.71-0.58,1.28-1.28,1.28h-2.57h-1.28v-1.28V175.78"/>
		<path d="M102.57,179.64v-1.28c0,0.71,0.58,1.28,1.28,1.28H102.57"/>
		<path d="M97.43,175.78v-1.28h1.28h2.57h1.28v1.28v2.57v1.28h-1.28h-2.57h-1.28v-1.28V175.78"/>
		<path d="M112.84,174.5h1.28c-0.71,0-1.28,0.58-1.28,1.28l0,0V174.5"/>
		<path d="M107.71,175.78v-1.28h1.28h2.57h1.28v1.28v2.57c0,0.71-0.58,1.28-1.28,1.28h-2.57c-0.71,0-1.28-0.58-1.28-1.28V175.78"/>
		<path d="M117.98,174.5h-1.28c0.71,0,1.28,0.58,1.28,1.28l0,0V174.5"/>
		<path d="M123.12,174.5h1.28c-0.71,0-1.28,0.58-1.28,1.28l0,0V174.5"/>
		<path d="M117.98,175.78v-1.28h1.28h2.57h1.28v1.28v2.57c0,0.71-0.58,1.28-1.28,1.28h-2.57c-0.71,0-1.28-0.58-1.28-1.28V175.78"/>
		<path d="M133.4,174.5v-1.28c0,0.71-0.58,1.28-1.28,1.28H133.4"/>
		<path d="M128.26,175.78c0-0.71,0.58-1.28,1.28-1.28l0,0h2.57h1.28v1.28v2.57v1.28h-1.28h-2.57c-0.71,0-1.28-0.58-1.28-1.28V175.78
			"/>
		<path d="M138.53,179.64h-1.28c0.71,0,1.28,0.58,1.28,1.28l0,0V179.64"/>
		<path d="M133.4,175.78v-1.28h1.28h2.57h1.28v1.28v2.57v1.28h-1.28h-2.57h-1.28v-1.28V175.78"/>
		<path d="M138.53,175.78v-1.28h1.28h2.57h1.28v1.28v2.57v1.28h-1.28h-2.57h-1.28v-1.28V175.78"/>
		<path d="M143.67,179.64h1.28c-0.71,0-1.28,0.58-1.28,1.28l0,0V179.64"/>
		<path d="M143.67,175.78v-1.28h1.28h2.57h1.28v1.28v2.57c0,0.71-0.58,1.28-1.28,1.28h-2.57h-1.28v-1.28V175.78"/>
		<path d="M153.95,175.78v-1.28h1.28h2.57h1.28v1.28v2.57v1.28h-1.28h-2.57h-1.28v-1.28V175.78"/>
		<path d="M159.09,175.78v-1.28h1.28h2.57h1.28v1.28v2.57v1.28h-1.28h-2.57h-1.28v-1.28V175.78"/>
		<path d="M169.36,174.5h1.28c-0.71,0-1.28,0.58-1.28,1.28l0,0V174.5"/>
		<path d="M164.22,179.64h1.28c-0.71,0-1.28,0.58-1.28,1.28l0,0V179.64"/>
		<path d="M164.22,175.78v-1.28h1.28h2.57h1.28v1.28v2.57c0,0.71-0.58,1.28-1.28,1.28h-2.57h-1.28v-1.28V175.78"/>
		<path d="M76.88,180.92v-1.28h1.28h2.57h1.28v1.28v2.57v1.28h-1.28h-2.57c-0.71,0-1.28-0.58-1.28-1.28l0,0V180.92"/>
		<path d="M82.02,180.92v-1.28h1.28h2.57h1.28v1.28v2.57c0,0.71-0.58,1.28-1.28,1.28l0,0H83.3h-1.28v-1.28V180.92"/>
		<path d="M97.43,180.92v-1.28h1.28h2.57h1.28v1.28v2.57v1.28h-1.28h-2.57c-0.71,0-1.28-0.58-1.28-1.28l0,0V180.92"/>
		<path d="M102.57,180.92v-1.28h1.28h2.57c0.71,0,1.28,0.58,1.28,1.28l0,0v2.57c0,0.71-0.58,1.28-1.28,1.28l0,0h-2.57h-1.28v-1.28
			V180.92"/>
		<path d="M112.84,180.92c0-0.71,0.58-1.28,1.28-1.28l0,0h2.57c0.71,0,1.28,0.58,1.28,1.28l0,0v2.57c0,0.71-0.58,1.28-1.28,1.28l0,0
			h-2.57c-0.71,0-1.28-0.58-1.28-1.28l0,0V180.92"/>
		<path d="M138.53,180.92v-1.28h1.28h2.57h1.28v1.28v2.57c0,0.71-0.58,1.28-1.28,1.28l0,0h-2.57c-0.71,0-1.28-0.58-1.28-1.28l0,0
			V180.92"/>
		<path d="M153.95,180.92v-1.28h1.28h2.57h1.28v1.28v2.57v1.28h-1.28h-2.57c-0.71,0-1.28-0.58-1.28-1.28l0,0V180.92"/>
		<path d="M159.09,180.92v-1.28h1.28h2.57h1.28v1.28v2.57c0,0.71-0.58,1.28-1.28,1.28l0,0h-2.57h-1.28v-1.28V180.92"/>
		<path d="M169.36,180.92c0-0.71,0.58-1.28,1.28-1.28l0,0h2.57h1.28v1.28v2.57v1.28h-1.28h-2.57c-0.71,0-1.28-0.58-1.28-1.28l0,0
			V180.92"/>
		<path d="M174.5,180.92v-1.28h1.28h2.57c0.71,0,1.28,0.58,1.28,1.28l0,0v2.57c0,0.71-0.58,1.28-1.28,1.28l0,0h-2.57h-1.28v-1.28
			V180.92"/>
		<path d="M24.22,15.22H42.2c4.97,0,8.99,4.03,8.99,8.99V42.2c0,4.97-4.03,8.99-8.99,8.99H24.22c-4.97,0-8.99-4.03-8.99-8.99V24.22
			C15.22,19.25,19.25,15.22,24.22,15.22z M24.22,20.36c-2.13,0-3.85,1.73-3.85,3.85V42.2c0,2.13,1.73,3.85,3.85,3.85H42.2
			c2.13,0,3.85-1.73,3.85-3.85V24.22c0-2.13-1.73-3.85-3.85-3.85H24.22z"/>
		<path d="M157.8,15.22h17.98c4.97,0,8.99,4.03,8.99,8.99V42.2c0,4.97-4.03,8.99-8.99,8.99H157.8c-4.97,0-8.99-4.03-8.99-8.99V24.22
			C148.81,19.25,152.84,15.22,157.8,15.22z M157.8,20.36c-2.13,0-3.85,1.73-3.85,3.85V42.2c0,2.13,1.73,3.85,3.85,3.85h17.98
			c2.13,0,3.85-1.73,3.85-3.85V24.22c0-2.13-1.73-3.85-3.85-3.85H157.8z"/>
		<path d="M24.22,148.81H42.2c4.97,0,8.99,4.03,8.99,8.99v17.98c0,4.97-4.03,8.99-8.99,8.99H24.22c-4.97,0-8.99-4.03-8.99-8.99
			V157.8C15.22,152.84,19.25,148.81,24.22,148.81z M24.22,153.95c-2.13,0-3.85,1.73-3.85,3.85v17.98c0,2.13,1.73,3.85,3.85,3.85
			H42.2c2.13,0,3.85-1.73,3.85-3.85V157.8c0-2.13-1.73-3.85-3.85-3.85H24.22z"/>
		<path d="M29.35,25.5h7.71c2.13,0,3.85,1.73,3.85,3.85v7.71c0,2.13-1.73,3.85-3.85,3.85h-7.71c-2.13,0-3.85-1.73-3.85-3.85v-7.71
			C25.5,27.22,27.22,25.5,29.35,25.5z"/>
		<path d="M162.94,25.5h7.71c2.13,0,3.85,1.73,3.85,3.85v7.71c0,2.13-1.73,3.85-3.85,3.85h-7.71c-2.13,0-3.85-1.73-3.85-3.85v-7.71
			C159.09,27.22,160.81,25.5,162.94,25.5z"/>
		<path d="M29.35,159.09h7.71c2.13,0,3.85,1.73,3.85,3.85v7.71c0,2.13-1.73,3.85-3.85,3.85h-7.71c-2.13,0-3.85-1.73-3.85-3.85v-7.71
			C25.5,160.81,27.22,159.09,29.35,159.09z"/>
	</g>
	<path d="M116.7,101.35c-0.01,0.04-0.02,0.08-0.02,0.13c-0.01,0.59-0.1,1.18-0.19,1.76c-0.2,1.18-0.52,2.32-0.97,3.42
		c-0.68,1.67-1.6,3.19-2.76,4.56c-1.35,1.59-2.94,2.87-4.76,3.87c-0.82,0.45-1.68,0.82-2.56,1.12c-0.21,0.07-0.43,0.08-0.64,0.03
		c-0.35-0.09-0.58-0.37-0.6-0.72c-0.01-0.08,0-0.15,0-0.23c0-1.51,0-3.02,0.01-4.53c0-0.5-0.06-0.99-0.2-1.46
		c-0.16-0.54-0.4-1.03-0.81-1.43c-0.01-0.01-0.02-0.02-0.03-0.03c-0.05-0.06-0.04-0.1,0.04-0.11c0.18-0.03,0.37-0.05,0.55-0.07
		c0.95-0.14,1.88-0.35,2.77-0.72c0.74-0.31,1.41-0.71,2-1.26c0.72-0.67,1.24-1.48,1.58-2.4c0.28-0.74,0.44-1.51,0.52-2.3
		c0.07-0.6,0.08-1.2,0.06-1.8c-0.04-1.18-0.37-2.26-1.02-3.25c-0.17-0.26-0.35-0.51-0.56-0.74c-0.09-0.09-0.11-0.18-0.07-0.31
		c0.27-0.77,0.32-1.57,0.25-2.38c-0.05-0.58-0.19-1.13-0.39-1.68c-0.07-0.2-0.1-0.22-0.31-0.23c-0.43-0.02-0.84,0.06-1.25,0.18
		c-0.69,0.2-1.34,0.51-1.96,0.86c-0.34,0.19-0.67,0.39-0.98,0.61c-0.1,0.07-0.19,0.08-0.3,0.05c-0.75-0.21-1.51-0.35-2.29-0.43
		c-0.38-0.04-0.77-0.07-1.15-0.08c-0.5-0.01-1.01-0.02-1.51,0.01c-1.04,0.06-2.06,0.22-3.06,0.49c-0.13,0.04-0.22,0.01-0.33-0.06
		c-0.7-0.47-1.44-0.89-2.23-1.21c-0.42-0.17-0.86-0.31-1.31-0.39c-0.22-0.04-0.44-0.06-0.66-0.05c-0.14,0.01-0.22,0.06-0.28,0.2
		c-0.33,0.89-0.48,1.8-0.42,2.75c0.03,0.45,0.11,0.88,0.26,1.31c0.05,0.13,0.03,0.23-0.06,0.34c-0.7,0.8-1.17,1.72-1.41,2.76
		c-0.1,0.45-0.16,0.91-0.17,1.37c-0.01,0.87,0.04,1.73,0.2,2.58c0.18,0.94,0.5,1.83,1.02,2.64c0.67,1.04,1.6,1.79,2.72,2.3
		c0.88,0.4,1.8,0.63,2.75,0.78c0.25,0.04,0.49,0.08,0.74,0.1c0.04,0,0.08,0,0.1,0.04c0.02,0.04-0.03,0.07-0.05,0.09
		c-0.53,0.53-0.79,1.19-0.92,1.9c-0.01,0.03-0.01,0.05-0.01,0.08c-0.01,0.13-0.08,0.19-0.19,0.23c-0.6,0.24-1.22,0.39-1.87,0.37
		c-0.79-0.03-1.48-0.3-2.07-0.83c-0.29-0.27-0.54-0.58-0.75-0.92c-0.3-0.5-0.68-0.93-1.15-1.27c-0.46-0.33-0.97-0.52-1.55-0.49
		c-0.15,0.01-0.3,0.02-0.45,0.08c-0.18,0.08-0.23,0.21-0.13,0.38c0.07,0.12,0.17,0.22,0.28,0.31c0.09,0.07,0.18,0.15,0.28,0.2
		c0.43,0.23,0.74,0.58,1.02,0.97c0.37,0.52,0.68,1.07,0.92,1.66c0.34,0.84,0.97,1.38,1.82,1.69c0.45,0.16,0.92,0.24,1.4,0.27
		c0.72,0.03,1.43-0.01,2.14-0.14c0.03-0.01,0.06-0.01,0.1-0.01c0.04,0,0.07,0.02,0.08,0.07c0,0.03,0.01,0.06,0.01,0.1
		c0.01,0.97,0.02,1.94,0.03,2.92c0,0.49-0.29,0.81-0.77,0.86c-0.16,0.02-0.33,0-0.48-0.05c-0.17-0.06-0.34-0.12-0.51-0.18
		c-1.53-0.58-2.96-1.36-4.26-2.36c-1.92-1.47-3.45-3.26-4.59-5.39c-0.82-1.52-1.38-3.14-1.7-4.84c-0.12-0.67-0.21-1.35-0.25-2.03
		c-0.01-0.14,0-0.29-0.05-0.43c0-0.4,0-0.8,0-1.21c0.05-0.12,0.05-0.26,0.05-0.38c0.03-0.65,0.12-1.3,0.23-1.94
		c0.27-1.53,0.75-2.99,1.43-4.38c0.65-1.33,1.47-2.56,2.45-3.67c0.77-0.89,1.63-1.68,2.57-2.38c1.23-0.92,2.57-1.66,4.01-2.21
		c1.45-0.55,2.94-0.9,4.49-1.04c0.18-0.02,0.37,0,0.55-0.05c0.64,0,1.28,0,1.92,0c0.04,0.01,0.07,0.02,0.11,0.02
		c0.63,0.03,1.25,0.11,1.87,0.22c1.99,0.35,3.86,1.05,5.6,2.09c1.59,0.95,2.98,2.13,4.18,3.54c1.16,1.36,2.07,2.87,2.74,4.52
		c0.46,1.14,0.8,2.32,1,3.53c0.09,0.55,0.17,1.1,0.18,1.67c0,0.05,0.01,0.1,0.02,0.14C116.7,100.09,116.7,100.72,116.7,101.35z"/>
</g>
</svg>
