<?xml version="1.0" encoding="utf-8"?>
<!-- Generator: Adobe Illustrator 27.5.0, SVG Export Plug-In . SVG Version: 6.00 Build 0)  -->
<svg version="1.1" id="Layer_1" xmlns="http://www.w3.org/2000/svg" xmlns:xlink="http://www.w3.org/1999/xlink" x="0px" y="0px"
	 viewBox="0 0 200 200" style="enable-background:new 0 0 200 200;" xml:space="preserve">
<style type="text/css">
	.st0{opacity:0.12;}
	.st1{fill:#E4EDF5;}
	.st2{fill:#CEBBB2;}
	.st3{fill:#DDD0C9;}
	.st4{fill:#D5C5BD;}
	.st5{fill:#B29E96;}
	.st6{fill:#E5DBD6;}
	.st7{fill:#333333;}
	.st8{fill:#E80360;}
</style>
<g>
	<g>
		<path class="st0" d="M170.16,103.15l-37.18-24.03l-27.76-15.4l-1.52-0.87l-15.74-2.02l-5.01,2.8c-3.76-2.13-7.91-4.02-12.56-5.42
			c-3.07-0.92-6.2-1.52-9.3-1.85c-1.45-0.73-2.96-1.43-4.58-2.08c-12.15-4.83-26.56-2.2-35.35,2.08
			c-18.33,8.93-6.87,28.59,7.35,39.11l-14.62,8.55l51.67,70.69l21.58,12.46c0.3-0.22,0.61-0.43,0.97-0.62
			c3.67-1.93,7.35-3.63,11.03-5.24c10.56-6.66,21.97-12.38,32.51-17.87c9.95-5.19,19.95-10.12,30-14.48
			c2.27-1.46,4.53-2.93,6.78-4.43C174.4,140.62,170.16,103.15,170.16,103.15z M33.31,92.7c-10.52-8.24-15.96-19.12-12.29-27.87
			c2.51-5.98,15.88-11.61,29.05-8.39c-6.1,0.73-11.47,2.63-15.12,5.46c-9.19,7.14-4.4,17.92,4.11,27.44L33.31,92.7z M44.41,86.21
			c-4.36-5.63-6.9-11.47-6.16-16.83c0.76-5.46,9.36-10.13,20.26-9.56c5.57,3.19,9.62,7.6,11.75,11.26L44.41,86.21z M75.65,67.93
			c-1.45-1.9-3.22-3.77-5.34-5.56c2.92,1.09,5.64,2.43,8.15,3.91L75.65,67.93z"/>
		<g>
			<path class="st1" d="M109.62,4.41C90.1,13.65,86.98,45.48,91.57,63.8c0.92,3.67,6.58,2.11,5.66-1.56
				c-3.69-14.71-1.36-32.91,7.15-45.54c5.63-8.35,19.55-13.8,27.5-5.69c6.21,6.34,6.98,19.15,5.69,27.43
				c-0.57,3.7,5.08,5.29,5.66,1.56c1.62-10.43,0.22-22.13-5.6-31.1C131.37-0.75,118.87,0.03,109.62,4.41z"/>
		</g>
		<g>
			<polygon class="st2" points="151.72,52.84 177.37,38.03 156.41,25.61 			"/>
		</g>
		<polygon class="st3" points="75.17,72.51 100.86,87.94 157.11,57.67 156.41,25.61 		"/>
		<polygon class="st4" points="75.17,72.51 65.58,174.75 107.07,198.7 96.13,84.93 		"/>
		<polygon class="st5" points="87.94,168.1 90.82,168.86 91.53,82.2 88.71,80.53 		"/>
		<g>
			<polygon class="st6" points="96.13,84.93 107.07,198.7 188.31,151.8 177.37,38.03 			"/>
		</g>
		<polygon class="st5" points="65.58,174.75 66.89,175.5 91.07,168.35 89.91,166.75 		"/>
		<polygon class="st5" points="88.38,167.27 104.38,197.15 107.07,198.7 90.09,166.8 		"/>
		<g>
			<path class="st1" d="M116.7,15.39c-17.26,12.95-15.01,45.31-10.25,63.66c0.95,3.66,6.61,2.11,5.66-1.56
				c-4.06-15.68-4.81-35.67,2.55-50.46c4.67-9.38,17.22-14.74,25.67-6.74c7.66,7.25,9.76,21.28,10.69,31.27
				c0.35,3.73,6.22,3.77,5.87,0c-1.05-11.32-3.38-25.12-11.14-33.96C138.08,8.86,125.85,8.52,116.7,15.39z"/>
		</g>
	</g>
	<g>
		<path class="st7" d="M115.93,121.57c-2.16,1.25-3.79,2.66-4.89,4.24c-1.11,1.58-1.65,3.24-1.64,5.01c0,0.99,0.14,1.73,0.43,2.23
			c0.29,0.51,0.76,0.81,1.41,0.9c0.65,0.1,1.54,0.02,2.64-0.24c0.94-0.23,1.68-0.39,2.22-0.48c0.55-0.1,0.95-0.07,1.19,0.08
			c0.23,0.14,0.37,0.46,0.37,0.93c0,0.72-0.25,1.32-0.74,1.81c-0.49,0.5-1.24,1.03-2.24,1.61c-0.81,0.46-1.65,0.85-2.55,1.12
			c-0.89,0.29-1.71,0.46-2.44,0.52l0.01,3.94c0.67-0.04,1.47-0.23,2.39-0.58c0.93-0.36,1.93-0.84,3-1.45
			c2.28-1.31,3.96-2.8,5.06-4.45c1.1-1.64,1.65-3.28,1.64-4.92c0-0.92-0.13-1.68-0.41-2.26c-0.27-0.58-0.76-0.96-1.46-1.12
			c-0.7-0.16-1.72-0.06-3.04,0.3c-0.86,0.23-1.53,0.38-2.02,0.47c-0.49,0.1-0.84,0.08-1.05-0.04c-0.2-0.12-0.3-0.39-0.3-0.8
			c0-0.69,0.27-1.29,0.84-1.81c0.55-0.51,1.29-1.03,2.19-1.55c0.68-0.39,1.39-0.73,2.12-1c0.73-0.26,1.45-0.44,2.17-0.52l-0.01-3.98
			c-0.55,0.11-1.27,0.34-2.16,0.69C117.77,120.59,116.86,121.03,115.93,121.57"/>
		<polyline class="st7" points="138.19,109.01 134.15,111.34 134.17,118.69 127.86,122.33 127.84,114.99 123.8,117.32 
			123.85,135.88 127.89,133.55 127.87,126.19 134.18,122.55 134.2,129.9 138.25,127.57 138.19,109.01 		"/>
		<path class="st7" d="M148.33,118.07c-1.37,0.79-2.37,0.92-3,0.39c-0.63-0.54-0.94-1.75-0.95-3.65c-0.01-2.08,0.3-3.72,0.92-4.94
			c0.63-1.22,1.62-2.21,2.99-3c1.36-0.78,2.35-0.94,2.97-0.44c0.63,0.49,0.95,1.77,0.96,3.85c0.01,1.9-0.3,3.47-0.93,4.73
			C150.68,116.27,149.69,117.29,148.33,118.07 M148.29,102.89c-2.62,1.51-4.61,3.41-5.99,5.71c-1.36,2.28-2.04,5.15-2.03,8.59
			c0.01,3.24,0.7,5.24,2.07,5.99c1.38,0.74,3.38,0.36,6-1.15c2.62-1.51,4.62-3.45,5.99-5.77c1.37-2.34,2.05-5.12,2.04-8.36
			c-0.01-3.44-0.7-5.52-2.08-6.21C152.92,100.97,150.91,101.38,148.29,102.89"/>
		<path class="st7" d="M162.46,104.55l-0.02-5.96l3.04-1.75c0.83-0.48,1.45-0.58,1.84-0.26c0.4,0.3,0.59,0.92,0.6,1.89
			c0,0.89-0.2,1.71-0.63,2.49c-0.43,0.79-1.06,1.42-1.92,1.92L162.46,104.55 M166.35,92.75l-7.95,4.59l0.05,18.56l4.04-2.33
			l-0.02-5.45l3.81-2.2c1.19-0.68,2.22-1.55,3.07-2.59c0.86-1.04,1.52-2.19,1.99-3.44c0.46-1.26,0.7-2.51,0.69-3.78
			c0-1.25-0.21-2.26-0.62-3.02c-0.41-0.76-1.04-1.2-1.87-1.3C168.69,91.69,167.64,92.01,166.35,92.75"/>
	</g>
	<g>
		<path class="st8" d="M117.44,119.53c-2.16,1.25-3.79,2.66-4.89,4.24c-1.11,1.58-1.65,3.24-1.64,5.01c0,0.99,0.14,1.73,0.43,2.23
			c0.29,0.51,0.76,0.81,1.41,0.9c0.65,0.1,1.54,0.02,2.64-0.24c0.94-0.23,1.68-0.39,2.22-0.48c0.55-0.1,0.95-0.07,1.19,0.08
			c0.23,0.14,0.37,0.46,0.37,0.93c0,0.72-0.25,1.32-0.74,1.81c-0.49,0.5-1.24,1.03-2.24,1.61c-0.81,0.46-1.65,0.85-2.55,1.12
			c-0.89,0.29-1.71,0.46-2.44,0.52l0.01,3.94c0.67-0.04,1.47-0.23,2.39-0.58c0.93-0.36,1.93-0.84,3-1.45
			c2.28-1.31,3.96-2.8,5.06-4.45c1.1-1.64,1.65-3.28,1.64-4.92c0-0.92-0.13-1.68-0.41-2.26c-0.27-0.58-0.76-0.96-1.46-1.12
			c-0.7-0.16-1.72-0.06-3.04,0.3c-0.86,0.23-1.53,0.38-2.02,0.47c-0.49,0.1-0.84,0.08-1.05-0.04c-0.2-0.12-0.3-0.39-0.3-0.8
			c0-0.69,0.27-1.29,0.84-1.81c0.55-0.51,1.29-1.03,2.19-1.55c0.68-0.39,1.39-0.73,2.12-1c0.73-0.26,1.45-0.44,2.17-0.52l-0.01-3.98
			c-0.55,0.11-1.27,0.34-2.16,0.69C119.28,118.55,118.37,118.99,117.44,119.53"/>
		<polyline class="st8" points="139.7,106.97 135.66,109.3 135.68,116.65 129.37,120.29 129.34,112.95 125.31,115.28 125.36,133.84 
			129.4,131.51 129.38,124.15 135.69,120.51 135.71,127.86 139.75,125.53 139.7,106.97 		"/>
		<path class="st8" d="M149.84,116.03c-1.37,0.79-2.37,0.92-3,0.39c-0.63-0.54-0.94-1.75-0.95-3.65c-0.01-2.08,0.3-3.72,0.92-4.94
			c0.63-1.22,1.62-2.21,2.99-3c1.36-0.78,2.35-0.94,2.97-0.44c0.63,0.49,0.95,1.77,0.96,3.85c0.01,1.9-0.3,3.47-0.93,4.73
			C152.19,114.23,151.2,115.25,149.84,116.03 M149.8,100.85c-2.62,1.51-4.61,3.41-5.99,5.71c-1.36,2.28-2.04,5.15-2.03,8.59
			c0.01,3.24,0.7,5.24,2.07,5.99c1.38,0.74,3.38,0.36,6-1.15c2.62-1.51,4.62-3.45,5.99-5.77c1.37-2.34,2.05-5.12,2.04-8.36
			c-0.01-3.44-0.7-5.52-2.08-6.21C154.42,98.93,152.42,99.34,149.8,100.85"/>
		<path class="st8" d="M163.97,102.51l-0.02-5.96l3.04-1.75c0.83-0.48,1.45-0.58,1.84-0.26c0.4,0.3,0.59,0.92,0.6,1.89
			c0,0.89-0.2,1.71-0.63,2.49c-0.43,0.79-1.06,1.42-1.92,1.92L163.97,102.51 M167.85,90.71l-7.95,4.59l0.05,18.56l4.04-2.33
			l-0.02-5.45l3.81-2.2c1.19-0.68,2.22-1.55,3.07-2.59c0.86-1.04,1.52-2.19,1.99-3.44c0.46-1.26,0.7-2.51,0.69-3.78
			c0-1.25-0.21-2.26-0.62-3.02c-0.41-0.76-1.04-1.2-1.87-1.3C170.2,89.65,169.14,89.97,167.85,90.71"/>
	</g>
</g>
</svg>
